<?xml version="1.0" encoding="utf-8"?>
<!-- Generator: Adobe Adobe Illustrator 24.2.0, SVG Export Plug-In . SVG Version: 6.00 Build 0)  -->
<svg version="1.1" id="svg1" xmlns:svg="http://www.w3.org/2000/svg"
	 xmlns="http://www.w3.org/2000/svg" xmlns:xlink="http://www.w3.org/1999/xlink" x="0px" y="0px" viewBox="0 0 640 640"
	 style="enable-background:new 0 0 640 640;" xml:space="preserve">
<style type="text/css">
	.st0{fill:#FFFFFF;stroke:#04205A;stroke-width:4.5001;stroke-miterlimit:1.8036;}
	.st1{fill:#04205A;}
	.st2{fill:#0467B3;}
	.st3{fill:#C4205A;}
	.st4{fill:none;}
</style>
<g id="g1036" transform="matrix(0.45089438,0,0,0.45089829,-302.30341,-179.00126)">
	<g id="g4" transform="translate(618.96975,306.53219)">
		<ellipse id="path1" class="st0" cx="762.4" cy="803.8" rx="549.5" ry="549.5"/>
		<g id="g414" transform="matrix(1.0077584,0,0,1.0077584,-10.881335,13.472743)">
			<path id="path1-8-4" class="st1" d="M1136.4,622.6c-1,1.2-1.6,3.4-2,22.8c0,1.5-0.1,2.9-0.2,4.4c-5.4,1.7-10.5,2.5-13,5.8
				c-4.5,6.1-17,31.4-23,37.5l-12.8,19.1l-0.5,179.8l-0.2,101.5l-2.8,0.3l-2.8,0.3v-0.2v-58.2l-13.6,0.3c-7.5,0.2-13.9,0.6-14.3,0.8
				c-0.4,0.3-3.3,3.4-6.4,6.9l-5.7,6.4v13.3v13.3l-3.1,1.5c-2.8,1.4-3.3,1.4-5.5,0c-1.3-0.9-2.5-1.2-2.7-0.7s-0.5-54-0.8-121.1
				c-0.3-67.1-0.9-123.5-1.4-125.3c-0.5-2.2-2.3-4.4-5.4-6.8c-2.5-1.9-12.3-11.1-21.7-20.5l-17.1-17l-10.9,11.2
				c-16.6,17.1-24.5,24.9-29.7,29.4l-4.7,4.1l0,12.4c0.2,39.7-0.9,200.1-1.3,200.5c-0.3,0.3-3.4,0.6-7,0.8s-7,0.6-7.6,1
				c-0.8,0.5-0.2,6.6-1.2,20.7l-1.2,17.4c-7.4-0.5-2.2,0.4-10.1,0.3l0.3-55.5v-56.5l-2.2,0.5c-1.2,0.3-10.8,2.2-21.3,4.1
				c-10.5,2-20.4,4-22,4.4l-3,0.8v33.2v33.2h-2.8h-2.8v-25.3c0-15.4-0.4-25.7-1-26.3c-1-1-17.1-0.1-19,1.1c-0.6,0.4-1,11.5-1,28.6
				v28l-6.2-0.3l-6.2-0.3l-0.2-12.5c-0.1-6.9-0.5-13.5-0.8-14.7l-0.5-2.2l-19.6,0.4l-19.6,0.4l0.1,23.4c0.1,19.1-0.2,23.8-1.4,25.4
				c-1.3,1.8-1.6,1.8-3,0.5c-1.2-1.1-1.6-4.4-1.8-13.8c-0.1-7.2-0.7-12.6-1.3-13.1c-0.6-0.5-4.3-1.1-8.2-1.3c-7-0.5-7.3-0.4-11.5,3
				c-2.4,1.9-6.5,4.6-9.1,5.9l-4.8,2.4l0.2-10.3c0.2-9.9,0-10.9-5.1-27.3c-2.9-9.3-5.4-17.1-5.5-17.2c-0.1-0.1-2.4,7.3-5.1,16.5
				c-3.7,12.8-4.9,18.9-5.3,26l-0.5,9.2h-4.4h-4.4v5.5c0,5.2-0.2,5.5-2.4,5.5c-2.2,0-2.5-0.6-3.3-5.2l-0.8-5.2l-9.5-0.3
				c-5.2-0.2-11.3,0.1-13.5,0.5l-4,0.8l-0.5,9.1c-0.3,5-0.8,9.5-1.2,9.9c-0.4,0.4-1.6,0-2.6-0.9c-2.3-2.1-2.9-2.1-3.5,0.1
				c-0.3,1-0.5,0.1-0.6-2c-0.1-3.7-0.2-3.8-4-3.8c-2.2,0-4.6-0.3-5.5-0.6c-1.3-0.5-1.6,0.1-1.6,2.9c0,2-0.4,3.8-0.9,4.1
				c-0.5,0.3-4.1-3.6-8-8.7c-3.9-5.1-7.9-10.5-9-11.9c-1.4-1.8-3.7-3-7.3-3.8c-6.6-1.5-7.6-1.5-11.4-0.3c-4.9,1.6-8.3-1.1-12.9-10.1
				c-4.6-9-9.1-12.3-15.2-11.2c-4.5,0.8-5.6,0.8-10.8,0c-5.1-0.7-8.9,1.1-14.2,6.6c-2,2.2-4.2,4-4.8,4c-0.6,0-1.6-2.2-2.3-5
				c-1.4-5.4-0.7-17.5,1.2-19.8c0.7-0.9,0.5-1.9-0.8-3.3c-1.8-1.9-1.8-4.3-1.6-42.2c0.1-22.1,0.3-42,0.3-44.2s-0.3-10.6-0.6-18.7
				c-0.5-11.8-0.5-17.4,0.1-21.5c1.5-10.1,3.5-24.5,0.2-25.8c-2.1-0.9-3.4,1.3-5.5,0.6c-4.2-1.4-6.6-0.8-7.3-3.4
				c-2.1-7.6-4.4-29.7-2.8-31.6c2.5-3,1.9-3.4-0.2-5.4c-2.1-2-2.1-2-4.5,0.3c-2.2,2.1-2.3,2.5-1,4.5c2.6,1.3,1.7,20.8-0.2,29.7
				c-1.1,3.7-1.7,5-6.1,6.2c-1.4,0.4-3.7,0.4-4.2,0.5c-3.4,0.2-7.5-1.5-8.2,0.6c-0.6,1.9-0.5,7.1-0.1,8.5c0.4,1.4,0.8,5.9,0.9,10
				c0.1,4.1,0.4,11.9,0.7,17.4c0.5,8.1,0.4,10.5-0.8,12c-1.5,1.9-1.5,1.9-3.8-0.1c-1.2-1.1-11.6-8.6-14.1-10
				c-15.4-8.3-13.8-9.5-13.5-13.2c0.4-4.5,2.4-1.3,3.3-3.5c1.1-2.4,0.2-3.1-2.2-3.5c-1.7-0.2-0.2-0.7-0.5-2.7
				c-0.2-1.1,0.4-4.2-2.1-2.8c-1.5,0.8-1.3,1.8-1.2,2.5c0.3,2.7,0.2,2.9-0.4,2.9c-3.6,0-3.7,3.1-2.3,4c1,0.6,1.8,0.7,2,1.6
				c0.4,2.1,0.1,0.5,0.5,4.1c0,2.5-1.3,1.6-6.1,5c-1,0.7-2.2,1.7-3.6,2.8c-7.8,6.9-28.9,19.5-30.7,20.1c-1,0.3-2.2,0.3-2.5,0
				c-0.9-0.9-1.1-27.5-0.3-34.1c0.4-3.3,1.3-8.9,2-12.5c0-0.2,0.1-0.5,0.1-0.7c2.2-11.8,1.3-14.4-4.1-13.6c-2.1,0.3-2.5-0.4-4.6-0.8
				c-1.4-0.2-2.6-1.4-4-1.9c-1.8-0.7-2.2-0.8-3.3-5c-3.1-11.9-2.6-11.1-2.7-28c0.1-1.8,2.2-2.4,2.2-3.5s-3.1-4.2-3.7-4.2
				c-0.5,0-4,2.9-4,4.2c0,1.9,1.9,0.8,1.8,4.1c-0.4,15-0.7,18.5-3.6,30.4c-0.1,0.6-0.3,1.2-0.4,1.8c-0.5,2.1-9.7,3-13.1,2.8
				c-2.3-0.1-3.1,0.3-3.4,1.8c-0.6,2.9,2,24.5,3,25.1c0.5,0.3,0.8,8.5,0.8,18.2c0,14.9-0.3,18.1-1.7,20.1c-1.1,1.6-1.4,2.9-0.7,4
				c0.5,0.9,0.6,4.2,0.6,7.4c-0.1,8.2-1,3.7-7.3,8.5c-0.6,0.4-4,3.9-8.4,7.2l-8,6l-0.3-14.1c-0.2-7.9,0.1-14.6,0.7-15.3
				c1.1-1.3,1.8-17.7,0.8-19.3c-0.4-0.6-1.8-0.9-3.2-0.6c-1.6,0.3-3.3-0.2-4.4-1.2c-1-0.9-2.7-1.5-3.7-1.4c-1.5,0.3-2.6-0.6-2.7-5.4
				c-1.5-5.2-2.7-28.5-4.2-28.3c-1.8,0.3-1.4,24.7-2.9,28.6c-0.9,2.3,0.1,4-0.8,4.9c-0.5,0.4-8.3,1.8-7.2,4.3
				c1.8,3.9,6,10.4,6.2,22.5c0.3,20.9,0,24.7-1,25c-1.1,0.3-0.7-3.2-0.5-13c0.3-11.6,0.6-14.6-1.3-20.4c-1.1-3.4-2.7-6.7-3.5-9.1
				c-0.8-2.5-2.7-3.3-4.9-5.2c-3.3-2.9-3.3-8.5-3.3-10.7c0-0.9,0.1-0.8,0.2-1.2c0.4-1.1,3-3.8,3-7.6c0-4.4-0.8-4.8-2.5-5.7
				c-1.1-0.6-1.9-4.1-2.4-5.5c-1-2.5-4.1-1.6-4.1,1c0,0.8-0.5,2.8-1.4,3.6c-4.3,3.5-3.5,8.9-1.6,12.6c2.6,5,2.5,8.6-4.8,17.3
				c-4.4,5.3-5.4,12-5.6,14.7c-1.7,19,0.7,36.7-1.9,54.8c-0.7,4.5-1.3,12.5-1.4,17.8l-0.2,9.7l-2.5-1.9c-2.4-1.8-2.5-2.5-2.8-12.8
				c-0.3-10.5-0.4-11-2.8-12.1c-1.4-0.6-3.6-1.1-4.9-1.1c-2.1,0-2.5,0.5-2.5,3.5c0,1.9-0.5,3.5-1.1,3.5c-0.6,0-1-1.7-0.8-4.2
				c0.3-4.1-17.6-5.8-17-4.9c0.1,0.1,10.5,73.8,47.8,138.3c47.2,81.7,101.3,134.2,130.7,158c67.8,54.7,38.3,52.7,98,36.4
				c57.4-11.8,92.5-8.4,127.5-15.1c32.9-6.3,57-10.4,49.3-23c-6.4-10.5-37.4-16.9-105.1-29c-68.7-12.3-66.6-9.5-93.5-16.2
				c-48.6-12.1-73.3-27.6-73.3-44.3c0-11.6,13.8-24.8,34.8-33c25.7-9.9,56.1-12.8,120.4-18.6c47-4.3,73.7-9.5,77.6-10.4
				c2.2-0.5,5.6-1,7.6-1c3.8,0,10.4-3.3,8.7-5c-0.9-0.9-20.9-4.3-28.4-5.5c-22.2-3.7,14.2-3.5-5.2-9.3c-2.1-0.6-5.4-2.8-7.3-4.8
				c-2-2.1-2.6-3-2.1-3c0.1,0,0.3,0.3,0.6,0.2c4.2-2.5,12.9,2,26,1.7c18.7-0.4,35.5,2.7,45.1,8c5.4,3,11.2,8.3,6,12.3
				c-11.6,8.9-7.3,15-3.7,19.9c4.8,6.5,0.2,8-17.1,15.7c-19.8,8.9-60.9,11.2-52.1,19.5c4.7,4.4,20.9-2.4,35.8,11.6
				c4.1,3.9,21.5,8,29.9,7.2c9.1-0.8,19.9,3.3,28.2,5.7c19.1,5.6,36.4,18.2,56.5,17.5c3.5-0.1,11.8,4.2,11.7,1.9
				c-0.8-15.6-35.5-23.9-11.1-46.5c9.1-8.4,42.7-8.5,54.4-15.3c6.2-3.6,14.7-4.7,6.9-9.3c-3.5-2.1-16.8-1.9-25.4-4.6
				c-13.5-4.1-20.1-16.2-16.1-20.5c3.1-3.3,22.5-6.5,32.2-7c12.3-0.6,24.4,1.2,37.2-2.7c7.5-2.2-8.8,6.3-17.8,7.1
				c-16.2,1.5-25.5,7.1-8.9,8.9c10.3,1.1,49.6-2.4,65.2,5c9.2,4.3,16.1,20.5,5.7,29.8c-7.4,6.6-25.1,17.8-33.4,25.8
				c-7,6.7-15.8,9.7-6.2,15.9c10.6,6.9,35.7,5.2,52.9,10.4c19.6,6,40,11.9,56.8,23.7c14.3,10,36.1,34.5,35.6,38.5
				c-4.4,32.2,89.6-58.6,143.5-165.2c47.7-94.3,36.7-103.3,36.7-103.3l-48.7,0.3l-0.1,41l-0.1,41l-8.6,16.5l-8.6,4.5l0-177.8
				c0,0,2.6-186.8-2.8-189.8c-5.4-2.9-32,8.7-32.2,8c-0.7-2.5-1.1-22.4-1.3-26.8c-0.3-4.9-2.4-3.2-3.6-4.4
				C1140.9,617.6,1139.1,619.2,1136.4,622.6L1136.4,622.6z M1176.4,642.7l0.2,1.8c0.1,1.2-3.4,6.2-5,9.1c-1.6,2.8-6,10.2-9.7,16.4
				c-3.8,6.2-8.1,13.8-9.6,16.8s-3.7,7.5-4.9,9.8l-2.2,4.3l0,174.9c0,147.7-2.9,162.1-3.4,156.9c-0.4-3.4-0.6-68.3-0.5-161.3
				c0.2-135.3,1.5-169.3,1.5-171.6C1142.9,694.1,1176.2,640.2,1176.4,642.7L1176.4,642.7z M1139.7,698.2c0,0.3,0.2,1.6,0.3,1.9
				c0,0.4-51.5,18.5-51.7,17.8c-0.2-0.7-0.1-0.4-0.1-2.2C1088.1,713.8,1139.3,698.8,1139.7,698.2z M976.9,733.3c0.2,0,0.4,0,0.5,0.2
				c0.3,0.3,0.3,1.4,0,2.5c-0.6,2.2-3.3,2.7-3.3,0.6C974.2,735.2,975.9,733.4,976.9,733.3z M983.2,733.9c1.3,0,2,0.7,2,2s-0.7,2-2,2
				s-2-0.7-2-2S981.8,733.9,983.2,733.9z M990.2,733.9c0.6,0,1.3,0.7,1.6,1.6c0.7,1.7-0.9,3.9-2,2.8
				C988.8,737.2,989,733.9,990.2,733.9L990.2,733.9z M995.7,734.4c0.3,0,0.7,0.2,1.4,0.5c1.2,0.6,1.7,1.7,1.4,2.5
				c-1,2.7-3.4,1.5-3.4-1.7C995.2,734.8,995.3,734.4,995.7,734.4L995.7,734.4z M969.8,734.9c0.9,0,1.4,0.7,1.2,1.7
				c-0.4,2-2.4,2.8-3.3,1.4C966.8,736.6,967.9,734.9,969.8,734.9L969.8,734.9z M962.3,735.2c0.3,0,0.6,0.1,0.8,0.2
				c0.6,0.4,1.1,1.3,1.1,2.1c0,1.7-2.6,1.9-3.6,0.4C959.9,736.7,961,735.2,962.3,735.2z M955.8,737c0.7,0,1.4,0.4,1.4,1.4
				c0,1.5-2.4,2.9-3.3,1.9c-0.3-0.3-0.3-1.2,0-1.9C954.2,737.4,955,737,955.8,737L955.8,737z M1127.4,737.5c0.4,0,0.3,0.5-0.2,1.7
				c-0.6,1.7-2.4,2.7-7.2,4c-3.5,1-9.3,2.7-12.9,3.7c-3.6,1.1-8.5,2.2-11,2.6l-4.5,0.6l2.1-2.2c1.5-1.5,6.2-3.2,16.5-5.7
				c7.9-1.9,15.2-3.9,16.2-4.4C1126.9,737.6,1127.2,737.5,1127.4,737.5z M948.8,738.5c0.4,0,0.8,0.3,1.2,0.8c0.6,0.7,0.8,1.6,0.5,2
				c-0.9,0.9-3.1,0.8-3.8-0.2c-0.3-0.5,0.1-1.4,0.8-2C948,738.7,948.4,738.5,948.8,738.5L948.8,738.5L948.8,738.5z M1152.5,739.1
				c1.6,0,5,1.2,11.3,3.9c5.1,2.2,9.8,4,10.4,4s1,0.7,1,1.5c0,1.9-3.7,1.9-7,0c-1.4-0.8-5.8-2.6-9.8-4.1c-4.2-1.5-7.2-3.3-7.2-4
				C1151.2,739.5,1151.5,739.1,1152.5,739.1L1152.5,739.1z M942.7,740.3c0.3,0,0.4,0.5,0.4,1.5c0,1.2-0.6,2.1-1.5,2.1
				c-0.8,0-1.5-0.4-1.5-0.9c0-0.5,0.7-1.4,1.5-2.1C942.2,740.5,942.5,740.3,942.7,740.3z M983.2,743.9c1.1,0,2,0.6,2,1.2
				c0,2.5-1.5,3.8-2.8,2.5C980.5,745.9,980.9,743.9,983.2,743.9L983.2,743.9z M990.7,743.9c0.9,0,1.4,0.7,1.2,1.7
				c-0.5,2.5-2.8,2.9-2.8,0.4C989.2,744.8,989.8,743.9,990.7,743.9L990.7,743.9z M996.7,743.9c0.9,0,1.5,0.9,1.5,2.5
				c0,2.4-1,3.2-2.3,1.8C994.6,747,995.2,743.9,996.7,743.9z M976,744c0.6,0,1.2,0.7,1.2,1.9c0,1.1-0.5,2.2-1,2.6
				c-1.2,0.8-2.4-2-1.5-3.5C975.1,744.3,975.6,744,976,744z M969.2,744.2c1.2,0,2.2,1.6,1.6,3.2c-0.3,0.9-1.1,1.6-1.7,1.6
				c-1.6,0-2.4-3-1.1-4.3C968.4,744.3,968.8,744.1,969.2,744.2L969.2,744.2z M963.3,745c0.2,0,0.3,0.1,0.4,0.2
				c0.3,0.3,0.3,1.5,0,2.7c-0.7,2.3-2,2.7-3.1,1C959.9,747.8,962.1,745,963.3,745L963.3,745z M955.8,746.9c0.9,0,1.4,0.7,1.2,1.7
				c-0.4,2-2.4,2.8-3.3,1.4C952.8,748.6,953.9,746.9,955.8,746.9L955.8,746.9z M950,747.9c0.3,0,0.5,0.1,0.7,0.3
				c0.3,0.3,0.2,1.2-0.2,2.1c-0.8,2.1-3.4,2.2-3.4,0.1c0-1.2,1.6-2.4,2.8-2.5L950,747.9L950,747.9z M1126.9,749.1
				c1.1,0,0.9,0.6,0.3,1.8c-0.7,1.3-3,2.3-6.8,3.1c-3.2,0.7-10.1,2.3-15.4,3.6c-5.3,1.3-10.4,2.4-11.3,2.4c-3.1,0-0.8-2.5,3.1-3.3
				c2.2-0.5,9.6-2.4,16.5-4.3C1121.7,750.1,1125.5,749.1,1126.9,749.1L1126.9,749.1z M1152.7,749.8c0.1,0,0.2,0,0.4,0
				c1.7,0.1,5.2,1.4,11.9,4.2c5.1,2.2,10,3.9,10.8,3.9s1.4,0.6,1.1,1.2c-0.8,2.5-3,1.9-20.2-5c-2.8-1.1-5-2.6-5-3.4
				C1151.7,750.2,1152,749.8,1152.7,749.8L1152.7,749.8z M942.3,750c0.5,0,0.9,0.5,0.9,1.4c0,1.8-1.1,2.4-2.8,1.8
				c-1-0.4-1-0.8-0.1-1.9C941,750.4,941.7,750,942.3,750L942.3,750z M990.3,752.4c0.8-0.1,1.9,1.8,1.9,3.6c0,0.5-0.7,0.9-1.5,0.9
				c-1.6,0-2.1-3.5-0.6-4.4C990.1,752.5,990.2,752.4,990.3,752.4L990.3,752.4z M983.2,752.4c0.8,0,1.6,1,1.8,2.2
				c0.2,1.7-0.2,2.2-1.8,2.2s-2.1-0.5-1.8-2.2C981.5,753.5,982.3,752.4,983.2,752.4z M975.7,752.9c0.8,0,1.5,0.9,1.5,2
				c0,1.1-0.7,2-1.5,2s-1.5-0.9-1.5-2C974.2,753.8,974.8,752.9,975.7,752.9z M997.8,752.9c1.1,0,1.4,0.5,1,1.6
				c-0.3,0.9-0.6,1.8-0.6,2s-0.7,0.4-1.6,0.4c-1.1,0-1.4-0.5-1-1.6c0.3-0.9,0.6-1.8,0.6-2S996.9,752.9,997.8,752.9z M969.2,753.4
				c0.8,0,1.6,0.8,1.8,1.8c0.2,1.2-0.3,1.8-1.8,1.8s-2-0.5-1.8-1.8C967.5,754.2,968.4,753.4,969.2,753.4z M962.3,754.2
				c0.3,0,0.6,0.1,0.8,0.2c0.6,0.4,1.1,1.3,1.1,2.1c0,1.7-2.6,1.9-3.6,0.4C959.9,755.7,961,754.2,962.3,754.2z M955.7,755.4
				c0.2,0,0.5,0.1,0.7,0.2c0.4,0.3,0.8,1.1,0.8,1.9c0,1.7-2.6,1.9-3.6,0.3C953,756.8,954.5,755.3,955.7,755.4L955.7,755.4z
				 M948.7,756.9c0.8,0,1.5,0.6,1.5,1.4c0,1.7-1.4,2.8-2.4,1.9C946.6,759.1,947.2,756.9,948.7,756.9z M942.9,758.6
				c0.4,0,0.4,0.6,0,1.8c-0.3,0.8-1.4,1.5-2.3,1.5c-1.5,0-1.5-0.2,0.2-1.9C941.8,759.1,942.5,758.6,942.9,758.6L942.9,758.6z
				 M416.2,759.1C416.3,759.1,416.3,759.1,416.2,759.1c0.3,0,0.5,0.1,0.8,0.6c0.9,1.7,2.1,54.3,1.4,59c-0.3,2-0.9,2.2-6.3,2.2h-5.9
				l1.2-2.8c1.9-4.3,1.5-29.8-0.7-42.9c-2.2-13.3-2.8-15.4,2-14.5c2.9,0.5,3.1,1.2,4.5,0.2c0.7-0.5,1.5-1.7,2.2-1.7
				C415.7,759.3,416,759.1,416.2,759.1L416.2,759.1z M1126.5,759.8c0.7,0,1.2,0.5,1.2,1.2c0,1.6-1.6,2.2-19,6.5
				c-15.7,3.9-16.5,4-16.5,2.1c0-0.9,1.1-1.8,2.8-2.2c1.5-0.3,8.8-2.1,16.3-3.9c7.4-1.8,14.2-3.5,15-3.7
				C1126.3,759.8,1126.4,759.8,1126.5,759.8L1126.5,759.8z M1152,759.9c2.2,0,25.2,9.5,24.9,10.4c-0.6,1.9-2.1,1.6-13.6-2.8
				c-7.7-2.9-11.5-4.8-11.7-5.9C1151.5,760.7,1151.6,759.9,1152,759.9L1152,759.9z M983.2,761.9c1.6,0,2,0.5,1.8,2.2
				c-0.6,3.8-3.8,3.5-3.8-0.3C981.2,762.6,981.9,761.9,983.2,761.9z M990.7,761.9c0.9,0,1.5,0.9,1.5,2.5c0,1.6-0.6,2.5-1.5,2.5
				s-1.5-0.9-1.5-2.5C989.2,762.9,989.7,761.9,990.7,761.9z M976.1,762.2c0.6,0,1.1,0.7,1.1,2.2c0,1.7-0.5,2.6-1.6,2.6
				c-1,0-1.5-0.7-1.2-2.2C974.6,763.1,975.4,762.2,976.1,762.2L976.1,762.2z M996.6,762.3c0.8,0,1.5,1.1,1.5,2.7
				c0,1.1-0.5,1.9-1,1.9c-1.3,0-2.3-2.6-1.5-4C995.9,762.5,996.3,762.3,996.6,762.3L996.6,762.3z M969.8,762.9
				c0.9,0,1.4,0.7,1.2,1.7c-0.4,2-2.4,2.8-3.3,1.4C966.8,764.6,967.9,762.9,969.8,762.9L969.8,762.9z M962.7,763.4L962.7,763.4
				c0.4,0,0.7,0.1,1,0.5c0.4,0.6,0.4,1.8,0.1,2.5c-0.7,1.9-2.2,1.9-3,0C960.3,765.1,961.6,763.5,962.7,763.4L962.7,763.4z
				 M533,764.1c0.1,0,0.2,0,0.3,0c1.4,0.3,0.3,32.9,0.4,37.1c0.5,13.4,0.4,19-0.5,20.6c-2,3.3-3.7,2.5-3.5-2.4c0.1-2.7,0-3.2-2-5.7
				c-6.9-8.6-3.4-26.6-5.5-39.3c-0.5-5.1-1.7-5.2-0.3-8c1.4-3,5.1-0.1,5.8-0.1C529.8,766.2,531.4,764,533,764.1L533,764.1z
				 M955.2,765.2c1.2,0,2.3,1.4,1.5,2.7c-0.4,0.6-1.1,1.1-1.6,1.1c-1.5,0-2.3-2.1-1.1-3.3C954.4,765.3,954.8,765.2,955.2,765.2z
				 M948.6,766.5C948.7,766.5,948.7,766.5,948.6,766.5c0.5,0,1,0.2,1.4,0.8c0.9,1.1,0.8,1.7-0.3,2.7c-1.2,1-1.6,0.9-2.1-0.4
				C946.9,767.9,947.6,766.6,948.6,766.5L948.6,766.5z M941.7,768.4c0.5,0,1,0.6,1.2,1.2s-0.3,1.2-1.2,1.2s-1.5-0.6-1.2-1.2
				S941.2,768.4,941.7,768.4z M983.2,770.9c1.6,0,2,0.5,1.8,2.2c-0.6,3.8-3.8,3.5-3.8-0.3C981.2,771.6,981.9,770.9,983.2,770.9z
				 M990.8,771c0.7,0,1.4,0.3,1.9,1.1c0.8,1.3-1.8,4.3-2.9,3.3c-0.4-0.4-0.7-1.5-0.7-2.5C989.2,771.7,989.9,771,990.8,771L990.8,771
				z M1152.3,771.1c1.4,0,4.3,1,9.9,3.4c4.5,1.9,8.8,3.5,9.7,3.5c0.8,0,2.4,0.5,3.5,1.1c1.6,0.9,1.8,1.4,0.8,2.5
				c-1.5,1.8-0.6,2-13.7-3.3c-6.4-2.6-11.2-5.2-11.2-5.9C1151.2,771.5,1151.5,771.1,1152.3,771.1z M976.2,771.1c1.1,0,2,1.5,1.4,3.2
				c-0.4,0.9-1.1,1.7-1.6,1.7c-1.5,0-2.2-3-1-4.3C975.4,771.3,975.8,771.1,976.2,771.1L976.2,771.1z M1126.8,771.4
				c1.6,0,1.8,0.5,0.7,1.6c-0.5,0.5-7.2,2.6-14.8,4.5c-7.6,1.9-15.4,3.5-17.3,3.5c-5.8,0-3.2-2.3,4.8-4.1c4.1-0.9,11.8-2.7,17.2-3.9
				C1122.2,771.9,1125.2,771.4,1126.8,771.4z M996.6,771.5c1.3,0.1,2.8,2.1,2,3.4c-0.4,0.6-1.1,1-1.6,1c-1.4,0-2.3-3-1.2-4.1
				c0.2-0.2,0.4-0.3,0.6-0.3L996.6,771.5L996.6,771.5z M969.6,772.1c0.4,0,0.7,0,1.1,0.2c1.4,0.5,1.4,0.9,0.4,2.1
				c-1.5,1.8-2.6,1.9-3.5,0.4C966.8,773.6,968.1,772.2,969.6,772.1z M962.7,772.6c1,0,1.8,1.2,1.1,2.8c-0.3,0.9-1,1.6-1.6,1.6
				c-1.7,0-2.3-2-1-3.6C961.7,772.8,962.2,772.5,962.7,772.6z M412.5,777.9c-3.2,0.3-2,1.1-1.8,14.8c0.2,9.2-0.2,14.7,2.9,14.4
				c3.1-0.3,1.6-14.4,1.6-14.4C414.8,790.9,415.7,777.6,412.5,777.9L412.5,777.9z M955.8,773.9c0.9,0,1.4,0.7,1.2,1.7
				c-0.4,2-2.4,2.8-3.3,1.4C952.8,775.6,953.9,773.9,955.8,773.9L955.8,773.9z M948.3,775.6h0.3c0.5,0,0.9,0.2,1.3,0.5
				c0.7,0.6,1,1.5,0.7,1.9c-0.8,1.2-3.2,1.1-4-0.2C945.9,776.7,947,775.7,948.3,775.6z M429.4,778.1c2.8-0.1,2.1,12.5,2.1,14.4
				c0.1,1.9,0.8,13.5-1.7,13.6s-2-11.1-2.1-13.7C427.7,789.9,426.1,778.2,429.4,778.1L429.4,778.1z M942.1,777.1
				c1.1,0,1.9,1,1.4,2.3c-0.3,0.8-1.2,1.5-2,1.5c-1.6,0-1.9-2.6-0.4-3.5C941.5,777.2,941.8,777.1,942.1,777.1z M529.8,779.8
				c-4,0-3.5,30.1-0.5,30.2C532.3,810.2,532.8,779.8,529.8,779.8z M545,809.1c-2.5,0-3.2-28.7,0-28.7
				C548.3,780.4,548.7,809,545,809.1z M1129.7,780.7l-2.5,2.6c-2.1,2.1-4.7,3-16,5.2c-7.4,1.4-14.8,2.8-16.4,3.2
				c-4.3,0.8-2.9-1.9,1.4-2.9c4.5-1,27.7-6.5,30.9-7.3L1129.7,780.7z M1152.2,782c1.6-0.1,5,1.1,10.4,3.4c4.4,1.9,9.5,3.8,11.2,4.1
				c1.8,0.3,3.2,1.2,3.2,2c0,2.1-2.5,1.6-13.5-2.3c-10.1-3.6-12.5-4.8-12.5-6.4C1151.2,782.3,1151.5,782,1152.2,782L1152.2,782z
				 M983.4,792.6h0.1c1,0.1,1.8,1.4,1.2,3.2c-0.4,1.2-1.1,2.1-1.5,2.1c-1.5,0-2-1.7-1.2-3.9C982.3,793.1,982.9,792.6,983.4,792.6
				L983.4,792.6z M990.6,792.7c0.5,0,1,0.6,1,1.9c0,0.9-0.6,1.9-1.3,2.1c-0.9,0.3-1.2-0.3-1-1.9
				C989.5,793.5,990.1,792.8,990.6,792.7L990.6,792.7z M1126.5,792.8c0.7,0,1.2,0.4,1.2,1.2c0,0.9-1.4,1.8-3.5,2.2
				c-1.9,0.4-8.7,1.9-15,3.3c-6.3,1.4-12.7,2.8-14.1,3.1c-3.4,0.7-4.7-1.3-1.7-2.5c1.3-0.5,8.8-2.2,16.8-3.9c8-1.7,15.2-3.2,16-3.4
				C1126.3,792.8,1126.4,792.8,1126.5,792.8L1126.5,792.8z M1152.8,792.8c1,0,2.8,0.5,6.2,1.8c3.7,1.4,8.7,3.2,11.2,3.9
				c6.9,2.1,7,2.2,6.4,3.8c-0.8,2-0.1,2.1-12.6-2.4c-12.7-4.6-12.8-4.7-12.1-6.5C1152,793.1,1152.2,792.8,1152.8,792.8L1152.8,792.8
				z M996.7,792.9c0.8,0,1.5,0.9,1.5,2s-0.7,2-1.5,2s-1.5-0.9-1.5-2S995.8,792.9,996.7,792.9z M976.2,793.2c0.4,0,0.8,0.2,1.2,0.6
				c0.8,0.8,0.7,1.5-0.2,2.6c-1.7,2.1-3,1.9-3-0.4C974.2,794.3,975.1,793.1,976.2,793.2L976.2,793.2z M970.3,793.2
				c1.3,0,1.7,1.1,0.8,2.8c-1.3,2.4-2.5,2.5-3.4,0.4c-0.8-2.1-0.8-2.1,1-2.8C969.4,793.3,969.9,793.2,970.3,793.2L970.3,793.2z
				 M963.8,793.9c0.9,0,1,0.7,0.5,2.2c-1,2.7-2.7,3.4-3.4,1.5C960.3,796,961.9,793.9,963.8,793.9z M956.4,794.9c0.5,0,0.8,1,0.6,2.2
				c-0.4,2.4-2.3,3.5-3.3,1.8C952.9,797.8,954.8,794.9,956.4,794.9z M949.4,796.5c0.4,0,0.8,0.2,1.2,0.5c0.6,0.6,0.4,1.6-0.7,2.6
				c-1.6,1.6-1.7,1.6-2.4-0.1C947,798,948.1,796.5,949.4,796.5z M942.7,798.3c0.4,0,0.4,0.4,0.3,1.2c-0.4,2-2.4,3-3.3,1.5
				c-0.3-0.6,0.3-1.5,1.5-2.1C942,798.5,942.4,798.3,942.7,798.3L942.7,798.3z M975.7,801.9c0.8,0,1.5,0.9,1.5,1.9
				c0,2.1-1.3,3.4-2.4,2.4C973.6,805,974.2,801.9,975.7,801.9z M983.7,801.9c1.6,0,1.8,0.9,0.8,3.4c-0.8,2-2.3,2-3,0.1
				C980.8,803.6,981.9,801.9,983.7,801.9L983.7,801.9z M990.3,802.2c0.7,0,1.5,0.7,1.7,2.1c0.2,1-0.3,1.7-1.2,1.7
				c-0.9,0-1.6-0.9-1.6-2.1C989.2,802.7,989.7,802.2,990.3,802.2L990.3,802.2z M969.2,802.9c1.4,0,2,0.5,1.8,1.7
				c-0.6,3-3.8,2.7-3.8-0.3C967.2,803.5,968.1,802.9,969.2,802.9L969.2,802.9z M996.8,803.1c0.8,0,1.7,0.4,1.8,1.3
				c0,0.5-0.7,1.1-1.7,1.3c-1.1,0.2-1.8-0.3-1.8-1.3C995.2,803.6,996,803.1,996.8,803.1z M962.3,803.2c0.3,0,0.6,0.1,0.8,0.2
				c0.6,0.4,1.1,1.3,1.1,2.1c0,1.7-2.6,1.9-3.6,0.4C959.9,804.7,961,803.2,962.3,803.2z M1127.6,803.2c0.1,0,0.2,0,0.2,0
				c0.2,0.2,0.1,1.1-0.2,1.9c-0.4,1-3,2-7.8,2.8c-3.9,0.7-8.7,1.8-10.6,2.6c-1.9,0.8-6.5,1.7-10.4,2c-5.8,0.5-6.9,0.4-6.5-0.8
				c0.3-0.9,4.3-2.2,10.4-3.5c5.5-1.2,13.2-2.9,17.3-3.8C1123.6,803.8,1126.8,803.2,1127.6,803.2L1127.6,803.2z M1152,804
				c3.2-0.1,23.7,6.9,24.3,8.4c0.8,2.1-3.9,1.4-13.6-2c-10.4-3.7-12.2-4.7-11.1-6.3C1151.6,804,1151.7,804,1152,804L1152,804z
				 M955.3,804.2c0.3,0,0.6,0.1,0.8,0.2c0.6,0.4,1.1,1.3,1.1,2.1c0,1.7-2.6,1.9-3.6,0.4C952.9,805.7,954,804.2,955.3,804.2z
				 M948,805.5c0.2,0,0.4,0,0.7,0.1c0.8,0.3,1.5,1.2,1.5,2c0,0.8-0.7,1.4-1.5,1.4c-0.8,0-1.5-0.9-1.5-2
				C947.2,806,947.4,805.5,948,805.5L948,805.5z M942.1,807c0.6,0,1.1,0.5,1.1,1.4c0,0.8-0.4,1.7-0.9,2c-1.2,0.7-2.4-1.1-1.6-2.5
				C941.1,807.3,941.6,807,942.1,807z M990.7,810.9c0.9,0,1.5,0.9,1.5,2.5c0,1.6-0.6,2.5-1.5,2.5s-1.5-0.9-1.5-2.5
				C989.2,811.9,989.7,810.9,990.7,810.9z M982.8,811.1L982.8,811.1c1,0,1.9,1.2,2.1,3.1c0.2,1.5-0.1,2.7-0.6,2.7
				c-1.7,0-3.4-2.9-2.8-4.6C981.9,811.5,982.3,811.2,982.8,811.1L982.8,811.1z M996.6,811.3c0.8,0,1.5,1.1,1.5,2.7
				c0,1.1-0.5,1.9-1,1.9c-1.3,0-2.3-2.6-1.5-4C995.9,811.5,996.3,811.3,996.6,811.3L996.6,811.3z M975.6,811.9c1.9,0,2.7,1.4,2,3.4
				c-1.1,2.7-3.4,1.7-3.4-1.6C974.2,812.8,974.8,811.9,975.6,811.9L975.6,811.9z M969.7,812.6c1,0,1.8,1.2,1.1,2.8
				c-0.3,0.9-1,1.6-1.6,1.6c-1.7,0-2.3-2-1-3.6C968.7,812.8,969.2,812.5,969.7,812.6L969.7,812.6z M962.4,813.2
				c0.9,0,1.8,0.9,1.8,2.3c0,1.5-2.5,2-3.4,0.6c-0.3-0.4-0.1-1.4,0.3-2.1C961.5,813.5,961.9,813.2,962.4,813.2z M955.2,813.9
				c0.6,0,1.3,0.7,1.7,1.6c0.8,2.1-0.8,3.6-2.6,2.5C952.8,817.1,953.4,813.9,955.2,813.9z M1152.7,814c1.3,0,3.5,0.7,6.4,2.1
				c2.5,1.2,7.4,2.9,11,3.8c4,1,6.5,2.2,6.5,3c0,1.9-1.4,2-7,0.3c-10.8-3.3-18.5-6.5-18.5-7.9C1151.2,814.5,1151.7,814.1,1152.7,814
				L1152.7,814z M1125.1,815c2.5-0.1,2.8,0.7,0.9,2.4c-0.8,0.7-7.9,2.3-15.9,3.5c-8,1.2-15.3,2.4-16.3,2.7c-1.1,0.3-1.8,0-1.8-1
				c0-1.5,1-1.8,11.5-3.6c3.3-0.6,9.8-1.9,14.5-2.9C1121.3,815.4,1123.6,815,1125.1,815z M948.3,815.2c0.7,0,1.5,0.7,1.7,2.1
				c0.2,1-0.3,1.7-1.2,1.7c-0.9,0-1.6-0.9-1.6-2.1C947.2,815.7,947.7,815.2,948.3,815.2L948.3,815.2z M943,816.1
				c0.3,0,0.2,0.4,0.1,1.3c-0.2,1-0.9,2.1-1.6,2.3c-1.8,0.6-1.5-1.3,0.4-2.8C942.4,816.3,942.8,816.1,943,816.1L943,816.1z
				 M991,820.4c0.2,0,0.4,0.1,0.5,0.2c0.4,0.4,0.7,1.3,0.7,2c0,1.5-2.6,1.8-3.4,0.4C988.2,822.1,989.9,820.4,991,820.4z
				 M983.2,820.9c1.4,0,2,0.5,1.8,1.7c-0.6,3-3.8,2.7-3.8-0.3C981.2,821.5,982.1,820.9,983.2,820.9L983.2,820.9z M996,820.9
				c0.5,0,1.4,0.6,2,1.4c1.3,1.5,0.3,2.6-1.7,1.9C995,823.7,994.7,820.9,996,820.9z M975.3,821.1h0.2c0.1,0,0.3,0,0.4,0.1
				c1,0.2,1.8,1,1.8,1.8c0,0.8-0.8,1.6-1.8,1.8c-1.2,0.2-1.8-0.3-1.8-1.8C974.2,821.7,974.5,821.1,975.3,821.1L975.3,821.1z
				 M969.2,821.9c1.1,0,2,0.7,2,1.5c0,0.8-0.9,1.5-2,1.5s-2-0.7-2-1.5C967.2,822.6,968.1,821.9,969.2,821.9z M503.6,822.1
				c4.2,0,8.4,0.3,15.2,1.1c4,1.7,3.1,19.1,0.3,17.6c-4-4-7.3-7.6-11.2-3.3c-3.6,3.9-6.7,1.5-8.3-1.5c-0.6-1.1-5-3.1-5.7-3.1
				c-4.9,1.9-6,3.2-6.1,3.4c-1.3,1.8-6.3,1.7-9.3-1.2c-4-4-5.9-3.9-9.8,0.4c-3.6,3.9-6.8,4.5-8.4,1.5c-0.6-1.1-1.7-2-2.4-2
				s-2.1,0.9-3.1,2c-3.8,4.2-4.9,2.1-4-7.5c0.2-2.4,1.1-2.9,2.5-3.3c7.7-2.4,29.4-3,35.9-3.7C495.4,822.3,499.4,822.1,503.6,822.1z
				 M962.2,822.9c1.1,0,2,0.7,2,1.5c0,1.5-2.1,2.1-3.3,0.8C959.6,824,960.2,822.9,962.2,822.9z M956.2,823c0.7,0,0.9,0.6,0.9,1.9
				c0,1.1-0.6,2-1.4,2c-2.1,0-3.1-2.1-1.4-3.1C955.2,823.3,955.8,823,956.2,823z M948.9,824.1c0.5,0,0.9,0.1,1.3,0.3
				c0.6,0.4,0.8,1.1,0.5,1.6c-0.8,1.2-3.2,1.2-4-0.1C946.1,825,947.5,824.1,948.9,824.1L948.9,824.1z M942.1,825
				c0.6,0,1.1,0.5,1.1,1.4c0,0.8-0.4,1.7-0.9,2c-1.2,0.7-2.4-1.1-1.6-2.5C941.1,825.3,941.6,825,942.1,825L942.1,825z M1127,825.1
				c0.9,0,1.2,0.3,1.2,1.2c0,1.8,0.1,1.8-18.2,5.1c-7.5,1.4-14.9,2.5-16.4,2.5c-2.2,0-2.5-0.2-1.4-1.5c0.7-0.8,2.3-1.5,3.5-1.5
				c2,0,24.1-4.1,30.2-5.7C1126.3,825.2,1126.7,825.1,1127,825.1z M1152.7,825.6c1.5,0,4.1,0.7,8.6,2.2c4.6,1.5,9.9,3.2,11.8,3.7
				c1.9,0.5,3.6,1.5,3.8,2.2c0.3,0.8-0.5,1.2-1.9,1.1c-4.8-0.2-23.8-6.6-23.8-8C1151.2,826,1151.6,825.6,1152.7,825.6L1152.7,825.6z
				 M418,826.4c0.2,0,0.4,0.1,0.5,0.2c0.5,0.9,1,81.3,0.5,81.3c-4.3,0.7-8.6,0.8-9.6,0.1c-1-0.7-1.3-4.5-1.3-15.8
				c0-21.7-0.6-57.4-1-60.9c-0.3-2.1,0-2.9,1-2.7c0.7,0.2,1.9-0.2,2.6-0.8s2-0.8,2.9-0.4c0.9,0.3,2.3,0.1,3-0.5
				C417.1,826.6,417.6,826.4,418,826.4L418,826.4z M984.8,828.9c0.3,0,0.3,1.2,0.2,2.7c-0.5,4.1-3.8,4.3-3.8,0.3
				C981.2,830.4,983,828.9,984.8,828.9z M990.7,828.9c0.9,0,1.5,0.9,1.5,2.5c0,1.6-0.6,2.5-1.5,2.5s-1.5-0.9-1.5-2.5
				C989.2,829.9,989.7,828.9,990.7,828.9z M975.6,829.9c0.8,0,1.7,0.4,2,0.9c0.7,1.2-1.8,4.4-2.7,3.5
				C973.6,833.1,974.1,829.9,975.6,829.9L975.6,829.9z M996,830.2c0.3,0,0.8,0.1,1.4,0.3c0.9,0.3,1.3,1.2,1,2
				c-0.7,1.9-2,1.8-2.7-0.2C995.2,830.9,995.3,830.2,996,830.2L996,830.2z M969.4,830.5c1.2,0,2.1,1.3,1.5,2.9
				c-0.3,0.9-1.1,1.6-1.7,1.6c-1.7,0-2.4-3.1-0.9-4.1C968.7,830.7,969,830.5,969.4,830.5L969.4,830.5z M962.8,830.9
				c0.9,0,1.4,0.7,1.2,1.7c-0.4,2-2.4,2.8-3.3,1.4C959.8,832.6,960.9,830.9,962.8,830.9L962.8,830.9z M955.3,832.2
				c0.3,0,0.6,0.1,0.8,0.2c0.6,0.4,1.1,1.3,1.1,2.1c0,1.7-2.6,1.9-3.6,0.4C952.9,833.7,954,832.2,955.3,832.2z M424.4,832.4
				c1.1-0.1,2.9,3.1,2.1,3.9c-0.3,0.3-1.2,0.6-2,0.6c-1.5,0-1.8-3.6-0.4-4.5C424.2,832.4,424.3,832.4,424.4,832.4z M948.3,833.2
				c0.7,0,1.5,0.7,1.7,2.1c0.2,1-0.3,1.7-1.2,1.7c-0.9,0-1.6-0.9-1.6-2.1C947.2,833.7,947.7,833.2,948.3,833.2L948.3,833.2z
				 M332.9,834.2L332.9,834.2c0.2,0,0.7,0.2,2.3,1c2.6,1.2,1.9-0.4,1.9,7c0,4.3-0.3,5.9-0.5,5.9c-1.9-0.5-2.9-0.5-4.1-1.5
				c-0.5-0.4-0.3-11,0.5-11.8C333.2,834.6,332.8,834.3,332.9,834.2L332.9,834.2L332.9,834.2L332.9,834.2L332.9,834.2L332.9,834.2
				L332.9,834.2L332.9,834.2C332.9,834.2,332.9,834.2,332.9,834.2L332.9,834.2C332.9,834.2,332.9,834.2,332.9,834.2L332.9,834.2z
				 M941.7,834.3c0.2,0,0.4,0.1,0.5,0.2c0.5,0.3,0.9,1.2,0.9,2c0,1.7-1.6,1.9-2.5,0.4C940,835.8,940.7,834.3,941.7,834.3
				L941.7,834.3z M344.8,835.1c1.1,0,2.4,0.4,2.4,1.5c0,4.3-0.2,12.1-0.4,12.1c-1.9-0.5-3.5,0.5-4.7-0.5c-0.5-0.4-0.2-11.6,1.1-12.7
				C343.5,835.3,344.2,835.1,344.8,835.1z M542.5,835.1c1.6-0.1,2.9,3.1,2.1,5.3c-0.7,1.8-2.7,2.5-4.4,1.4c-1.8-1.1-0.1-6.3,2.2-6.8
				C542.4,835.1,542.4,835.1,542.5,835.1L542.5,835.1z M1126.5,836.3c1.9,0,2.2,0.5,1.1,1.6c-0.5,0.5-6.1,2.1-12.4,3.5
				c-15.1,3.4-21.5,4.1-22.5,2.6c-1.1-1.8,0.1-2.4,6.3-3.1c3.1-0.4,10.8-1.7,16.9-3C1121.2,836.8,1124.7,836.3,1126.5,836.3
				L1126.5,836.3z M1153,836.5c1.4,0,4.1,0.6,7.9,1.9c4.3,1.4,9.8,3.1,12.1,3.6c2.6,0.6,4.2,1.6,4.2,2.5c0,1.3-2,1.8-4.5,1
				c-0.6-0.2-5.1-1.5-10-3c-9.7-2.9-12.2-4.2-10.6-5.8C1152.2,836.5,1152.5,836.5,1153,836.5L1153,836.5z M983.8,838.9
				c1,0,1.4,0.8,1.2,2.2c-0.4,2.6-2.6,3.6-3.4,1.5C980.8,840.6,981.9,838.9,983.8,838.9L983.8,838.9z M990.5,839
				c0.8,0,1.6,0.7,1.6,2c0,1.1-0.6,2-1.3,2c-1.9,0-2.6-1-2-2.6C989.2,839.4,989.9,839,990.5,839L990.5,839z M975.6,839.3
				c0.8,0,1.5,1.1,1.5,2.7c0,1.1-0.5,1.9-1,1.9c-1.3,0-2.3-2.6-1.5-4C974.9,839.5,975.3,839.3,975.6,839.3L975.6,839.3z
				 M996.5,839.5c0.6,0,1.2,0.5,1.7,1.4c0.9,1.7,0.8,2-0.9,2c-1.1,0-2-0.6-2-1.4C995.2,840.2,995.7,839.5,996.5,839.5z M969.3,840.2
				c0.3,0,0.6,0.1,0.8,0.2c0.6,0.4,1.1,1.3,1.1,2.1c0,1.7-2.6,1.9-3.6,0.4C966.9,841.7,968,840.2,969.3,840.2z M962.8,840.2
				c0.4,0,0.6,0.4,0.9,1.1c0.4,1,0.2,2.2-0.4,2.8c-0.8,0.8-1.3,0.6-1.8-0.6c-0.4-1-0.2-2.2,0.4-2.8
				C962.3,840.4,962.6,840.2,962.8,840.2L962.8,840.2z M955.4,841.2c0.9,0,1.8,0.9,1.8,2.3c0,1.5-2.5,2-3.4,0.6
				c-0.3-0.4-0.1-1.4,0.3-2.1C954.5,841.5,954.9,841.2,955.4,841.2z M947.9,842.1c1.1-0.1,3.2,2,2.7,3c-0.3,0.5-1,0.9-1.5,0.9
				c-1.2,0-2.4-2.9-1.6-3.7C947.6,842.2,947.8,842.1,947.9,842.1L947.9,842.1z M941.8,843.2c0.3,0,0.6,0.3,0.9,1
				c1,2.7,0,4.1-1.5,2.3c-1-1.2-1.1-1.9-0.2-2.8C941.3,843.4,941.6,843.2,941.8,843.2z M474.7,843.6c0.7,0,1.5,0.8,2.7,2.4
				c1.7,2.3,2,5,2.5,27.8c0.5,23.8-0.5,23.2-1.3,26.7c-0.8,3.4-7.1,3.2-8.5,1.5c-0.7-2,0.3-16.1,0.4-25.2c0.2-9.1,0.8-26.4,1.8-29.3
				C473.2,844.9,473.8,843.7,474.7,843.6L474.7,843.6z M493.7,843.9c4.9,0,5.4,2.6,5.9,29.8c0,0,0.6,22.3,0.5,25.1
				c-0.1,2.9-6.3,3.2-8.6,1.5c-2.3-1.7-3.6-0.1-2.4-25.5C489.2,848,489.8,843.9,493.7,843.9L493.7,843.9z M400.2,872.5
				c0,0,0.7,22.2,0.1,24.4c-0.6,2.2-4,1.2-5.2,0c-0.2-1.5,0-25,0-25c0-23.9,0.2-20.8,2-22C400.7,847.6,400,849.8,400.2,872.5z
				 M515.1,848.4c1,6.4,1.2,33.3,0.1,49.5c-0.2,3.1-4.1,2.7-5.2,1.5c-2.1-2.2-1.1-13.8-1.4-26.5c-0.3-13.8,0.4-25.3,1.9-26.8
				S514.4,844.8,515.1,848.4z M458,845.9c2.6,0,3.3,8.1,3,33c0,0,0.8,21.6-0.3,23.5s-5.6,2.6-6.5,0.6c-1.3-2.9,0-24.1,0-24.1
				c0-20.5,0.3-26.8,1.4-29.6C456.4,847.5,457.5,845.9,458,845.9L458,845.9z M1153.3,847c1.4,0,3.3,0.5,5.6,1.5
				c2,0.9,7.1,2.4,11.2,3.4c4.1,1,7.5,2.2,7.5,2.7c0,1.3-5.4,1.4-9.5,0.3c-13.2-3.7-17-5.1-17-6.4C1151.2,847.4,1152,847,1153.3,847
				z M1127,847.5c0.2,0.2,0.1,1-0.1,1.7c-0.5,1.4-7.6,3-21.2,4.7c-4.4,0.6-9.2,1.2-10.6,1.5c-1.4,0.2-2.9,0.2-3.2-0.2
				c-1.2-1.2,1.7-3.3,4.7-3.3c1.7,0,9.2-1.1,16.6-2.4C1120.6,848.2,1126.8,847.3,1127,847.5L1127,847.5z M984.2,848
				c0.6,0,1,0.8,1,2.4c0,1.5-0.6,2.5-1.4,2.5c-2.1,0-2.9-1.9-1.5-3.5C983,848.5,983.7,848,984.2,848L984.2,848z M975.7,848.4
				c0.5,0,1.1,1,1.3,2.2c0.2,1.5-0.2,2.2-1.3,2.2s-1.5-0.7-1.3-2.2C974.5,849.5,975.1,848.4,975.7,848.4z M990.6,848.7
				c0.5,0,1,0.6,1,1.9c0,0.9-0.6,1.9-1.3,2.1c-0.9,0.3-1.2-0.3-1-1.9C989.5,849.5,990.1,848.8,990.6,848.7z M996.8,849
				c0.7,0,1.4,0.3,1.7,0.9c0.7,1.1-1.9,3.3-2.8,2.4c-0.4-0.4-0.7-1.3-0.7-2C995.2,849.4,996,849,996.8,849z M969.3,849.2
				c0.3,0,0.6,0.1,0.8,0.2c0.6,0.4,1.1,1.3,1.1,2.1c0,1.7-2.6,1.9-3.6,0.4C966.9,850.7,968,849.2,969.3,849.2z M962.7,849.9
				c0.9,0,1.4,0.7,1.2,1.7c-0.5,2.5-2.8,2.9-2.8,0.4C961.2,850.8,961.8,849.9,962.7,849.9L962.7,849.9z M955.1,850.1
				c1.2,0,2.3,1.6,1.7,3.3c-0.3,0.9-1,1.6-1.5,1.6c-1.5,0-2.3-3.2-1.2-4.4C954.4,850.3,954.8,850.1,955.1,850.1L955.1,850.1z
				 M948.3,851.2c0.7,0,1.5,0.7,1.7,2.1c0.2,1-0.3,1.7-1.2,1.7c-0.9,0-1.6-0.9-1.6-2.1C947.2,851.7,947.7,851.2,948.3,851.2
				L948.3,851.2z M941.7,852.9c0.8,0,1.5,0.9,1.5,2c0,2.3-0.2,2.4-1.8,0.8C939.7,854.1,939.9,852.9,941.7,852.9z M386.3,857
				c1.2,0,1.6,2.5,1.8,21.7c0.1,18.6,0.4,17-1.6,18.3c-0.9,0.6-2.2-0.4-2.5-0.8c-0.3-0.4-0.8-9.2-1-20.7c-0.2-17.3,0-16.9,1.2-17.7
				C385,857.4,386,857,386.3,857L386.3,857z M983.8,857.1c0.9,0,1.3,0.5,1.3,1.5c0,2.8-1.4,4.3-2.9,3.4c-1.8-1.1-1-4.5,1.1-4.9
				C983.6,857.1,983.7,857.1,983.8,857.1L983.8,857.1z M990.7,857.4c0.5,0,1.1,1,1.3,2.2c0.2,1.5-0.2,2.2-1.3,2.2s-1.5-0.7-1.3-2.2
				C989.5,858.5,990.1,857.4,990.7,857.4z M975.8,858c0.7,0,1.4,0.3,1.9,1.1c0.8,1.3-1.8,4.3-2.9,3.3c-0.4-0.4-0.7-1.5-0.7-2.5
				C974.2,858.7,974.9,858,975.8,858z M996.1,858c0.9,0,2,1.2,2,2.5c0,0.8-0.5,1.4-1,1.4c-1.2,0-2.5-2.8-1.7-3.6
				C995.6,858.1,995.8,858.1,996.1,858L996.1,858L996.1,858z M969.3,858.2c0.1,0,0.2,0,0.2,0c0.6,0.2,1.1,1.2,1.1,2.2
				c0,2-2,3.1-2.9,1.6C966.9,860.8,968.1,858.2,969.3,858.2L969.3,858.2z M1128,858.5c0.2,0.2,0.1,1-0.2,1.8c-0.4,1-2.8,1.7-7.4,2.1
				c-3.7,0.4-10.6,1.3-15.2,2.1c-10.5,1.8-14.4,1.8-13.9,0.2c0.2-0.7,3.1-1.6,6.3-2.1c3.3-0.5,11.3-1.7,17.9-2.6
				C1122.3,859,1127.8,858.4,1128,858.5L1128,858.5z M1152.4,858.6c3.8,0,25.2,5.9,25.6,7.1c0.6,1.8-3.9,1.4-15-1.6
				c-9.2-2.5-13-4.3-11.1-5.4C1151.9,858.6,1152.1,858.6,1152.4,858.6L1152.4,858.6z M962.5,859c0.8,0,1.6,0.7,1.6,2
				c0,1.1-0.6,2-1.3,2c-1.9,0-2.6-1-2-2.6C961.2,859.4,961.9,859,962.5,859L962.5,859z M955.8,859.9c0.9,0,1.4,0.7,1.2,1.7
				c-0.4,2-2.4,2.8-3.3,1.4C952.8,861.6,953.9,859.9,955.8,859.9L955.8,859.9z M948.7,860.4c0.5,0,1.1,0.8,1.3,1.8
				c0.2,1.1-0.3,1.8-1.3,1.8c-1,0-1.5-0.7-1.3-1.8C947.5,861.2,948.1,860.4,948.7,860.4z M941.7,861.9c0.8,0,1.5,0.7,1.5,1.5
				s-0.7,1.5-1.5,1.5s-1.5-0.7-1.5-1.5S940.8,861.9,941.7,861.9z M426.3,863.5c0.7,0,1.4,0.6,1.4,1.9c0,1.1-0.8,2.1-1.8,2.3
				c-1.4,0.3-1.8-0.2-1.5-2C424.5,864.3,425.5,863.5,426.3,863.5L426.3,863.5z M375.4,864.4c0.3,0-1.4,0.1-1.2,0.2
				c0.4,0.5,1,5.9,1.3,12.1c0.4,9.9,1.2,16.9-0.6,18.1c-0.9,0.6-1.2,0.4-1.9-0.5c-1.3-1.5-2.7-27.3,0.4-29.3
				C374,864.6,374.8,864.4,375.4,864.4L375.4,864.4z M983.4,866.5c1.2,0,1.9,1.4,1.3,3.4c-0.9,2.7-2.2,2.7-3.1,0
				c-0.4-1.3-0.2-2.4,0.7-3C982.7,866.6,983.1,866.5,983.4,866.5L983.4,866.5z M990.7,866.9c0.8,0,1.5,0.9,1.5,1.9
				c0,2.1-1.3,3.4-2.4,2.4C988.6,870,989.2,866.9,990.7,866.9z M975.3,867.1h0.2c0.1,0,0.3,0,0.4,0.1c1,0.2,1.8,1,1.8,1.8
				c0,0.8-0.8,1.6-1.8,1.8c-1.2,0.2-1.8-0.3-1.8-1.8C974.2,867.7,974.5,867.1,975.3,867.1L975.3,867.1z M970.4,867.2
				c1.3,0.1,1.6,1.3,0.2,2.8c-0.9,1-2.1,1.9-2.6,1.9c-1.5,0-0.9-3.8,0.7-4.4C969.4,867.3,970,867.2,970.4,867.2L970.4,867.2z
				 M996.5,867.4c1.2,0,2.8,2.1,2,2.9c-0.4,0.4-1.3,0.7-2,0.7c-1.5,0-1.8-2.6-0.4-3.4C996.2,867.4,996.3,867.4,996.5,867.4z
				 M542.7,867.9c2.9,0,3.6,3.4,0.9,4.4c-2.5,1-3.4,0.3-3.4-2.6C540.2,868.5,540.9,867.9,542.7,867.9z M962.2,867.9
				c1.4,0,2,0.5,1.8,1.7c-0.6,3-3.8,2.7-3.8-0.3C960.2,868.5,961.1,867.9,962.2,867.9L962.2,867.9z M955.3,868.2
				c0.3,0,0.6,0.1,0.8,0.2c0.6,0.4,1.1,1.3,1.1,2.1c0,1.7-2.6,1.9-3.6,0.4C952.9,869.7,954,868.2,955.3,868.2z M1126.1,869
				c1.4,0,2.1,0.3,2.1,0.9c0,1.1-3.9,2.2-15.5,4.4c-12.5,2.4-19.2,3-19.9,1.7c-1.2-1.9,0.4-3.1,4.3-3.1c2.1,0,8.6-0.9,14.6-2
				C1119.2,869.6,1123.7,868.9,1126.1,869z M947.9,869.1c1,0,3.3,1.8,3.3,2.9c0,0.5-0.7,0.9-1.5,0.9c-1.6,0-3.1-2.7-2.1-3.7
				C947.6,869.2,947.7,869.1,947.9,869.1z M1153.6,869.3c1.3,0,3.5,0.5,6.8,1.4c4,1.2,9.2,2.4,11.5,2.7c2.3,0.4,4.5,1.1,4.9,1.7
				c1.4,2.2-1.5,2.4-9.6,0.8c-10.7-2.2-16.7-4.7-15.2-6.2C1152.3,869.4,1152.8,869.3,1153.6,869.3z M942.2,869.9c0.5,0,1,0.9,1,2
				s-0.5,2-1,2s-1-0.9-1-2S941.6,869.9,942.2,869.9z M975.2,875.9c0.6,0,1.3,0.6,1.6,1.4c0.8,2.2,0.1,4.3-1.4,3.8
				C973.9,880.7,973.7,875.9,975.2,875.9L975.2,875.9z M983.6,875.9c1,0,1.5,0.9,1.5,2.4c0,3-1.4,4-3,2.1
				C980.7,878.6,981.5,875.9,983.6,875.9z M990.6,875.9c1.9,0,2.7,2.5,1.3,3.9c-1.8,1.8-2.7,1.3-2.7-1.4
				C989.2,877,989.7,875.9,990.6,875.9L990.6,875.9z M969.4,877c0.9,0,1.8,0.7,1.8,1.9c0,1.1-0.4,2.2-0.9,2.5
				c-1.2,0.8-3.4-2.1-2.6-3.4C968.1,877.3,968.7,876.9,969.4,877L969.4,877z M995.9,877.1c0.5,0,1.2,0.4,1.9,1
				c0.9,0.9,1.2,1.8,0.6,2.2c-1.2,0.7-3.8-2.1-2.8-3.1C995.6,877.1,995.8,877.1,995.9,877.1z M962.7,877.4c0.4,0,0.7,0.1,1,0.5
				c0.4,0.6,0.4,1.8,0.1,2.5c-0.7,1.9-2.2,1.9-3,0C960.3,879.1,961.6,877.5,962.7,877.4L962.7,877.4z M955.2,877.9
				c0.6,0,1.3,0.7,1.7,1.6c0.8,2.1-0.8,3.6-2.6,2.5C952.8,881.1,953.4,877.9,955.2,877.9z M948.1,879.1c0.4,0,0.8,0.2,1.3,0.7
				c0.9,0.9,0.9,1.5,0,2.4c-0.9,0.9-1.3,0.8-1.8-0.5C947,880.1,947.3,879,948.1,879.1L948.1,879.1z M941.8,879.2
				c0.4,0,0.6,0.4,0.9,1.1c0.4,1,0.2,2.2-0.4,2.8c-0.8,0.8-1.3,0.6-1.8-0.6c-0.4-1-0.2-2.2,0.4-2.8
				C941.3,879.4,941.6,879.2,941.8,879.2L941.8,879.2z M1126,879.9c2.4,0.1,2.7,0.9,1,2.6c-0.9,0.9-6.9,1.9-16.1,2.9
				c-17.9,1.9-19.1,1.9-18.5,0.3c0.2-0.8,4.1-1.7,9.8-2.5c5.2-0.7,12.9-1.8,17.2-2.6C1122.4,880.1,1124.6,879.9,1126,879.9
				L1126,879.9z M1152,880.2c2.1,0,9.9,1.5,22.6,4.6c1.6,0.4,3.1,1.3,3.3,1.9c0.5,1.4-2.2,1.4-8.3,0.1c-2.2-0.5-6.5-1.3-9.5-1.9
				c-5.5-1.1-9.9-3.4-8.7-4.6C1151.5,880.2,1151.7,880.2,1152,880.2L1152,880.2z M984.3,885c0.7,0,0.9,0.9,0.7,2.6
				c-0.4,3.4-2.4,4.1-3.3,1.3c-0.4-1.4-0.2-2.5,0.7-3C983.2,885.3,983.8,885,984.3,885L984.3,885z M990.6,885.7c0.5,0,1,0.6,1,1.9
				c0,0.9-0.6,1.9-1.3,2.1c-0.9,0.3-1.2-0.3-1-1.9C989.5,886.5,990.1,885.8,990.6,885.7L990.6,885.7z M969.8,885.9
				c1,0,1.4,0.8,1.2,2.2c-0.4,2.7-2.4,3.5-3.2,1.3C967,887.4,967.8,885.9,969.8,885.9L969.8,885.9z M976.3,885.9
				c1.5,0,1.9,0.4,1.5,1.6c-0.3,0.9-0.6,2-0.6,2.5c0,1.1-1.4,1.2-2.3,0.3C973.3,888.7,974.2,885.9,976.3,885.9z M996.7,886.3
				c0.2,0,0.4,0.1,0.5,0.2c0.5,0.3,0.9,1.2,0.9,2c0,1.7-1.6,1.9-2.5,0.4C995,887.8,995.7,886.3,996.7,886.3L996.7,886.3z
				 M962.8,886.9c0.9,0,1.4,0.7,1.2,1.7c-0.4,2-2.4,2.8-3.3,1.4C959.8,888.6,960.9,886.9,962.8,886.9L962.8,886.9z M955.6,887.4
				c0.9,0,1.5,0.7,1.5,2c0,2.2-1.6,2.6-3.1,0.9c-1.1-1.3-1.1-1.7,0.1-2.4C954.7,887.6,955.2,887.5,955.6,887.4L955.6,887.4z
				 M948.8,888c0.7,0,1.3,0.5,1.7,1.4c0.3,0.8-0.2,1.6-1.4,1.9c-1.4,0.4-1.9,0-1.9-1.4C947.2,888.6,948,888,948.8,888L948.8,888z
				 M941.8,889.3c0.3,0,0.6,0.2,0.9,0.6c0.4,0.6,0.3,1.6-0.3,2.2c-0.7,0.7-1.2,0.6-1.7-0.2c-0.4-0.6-0.3-1.6,0.3-2.2
				C941.2,889.5,941.5,889.3,941.8,889.3L941.8,889.3z M1126.6,891.1c2,0,1.5,0.5,1.3,1.6c-0.3,1.4-2.2,1.9-11.3,2.9
				c-6,0.6-13.7,1.5-17.1,1.9c-4.2,0.5-6.3,0.4-6.8-0.4c-0.8-1.3,0.2-3.4,1.3-2.7c0.4,0.3,7.9-0.4,16.6-1.5
				C1120.2,891.7,1124.7,891.1,1126.6,891.1z M1153,891.2c0.3,0,0.8,0.1,1.3,0.2c8.2,1.9,17.4,3.5,20,3.5c2.3,0,2.9,0.4,2.7,1.8
				c-0.5,2.4-2.7,2.4-14.3-0.2c-7.6-1.7-10.1-2.6-10.3-3.9C1152.2,891.7,1152.3,891.3,1153,891.2L1153,891.2z M984.3,894.4
				c0.3,0,0.5,0.4,0.7,1.1c0.2,0.9,0.1,2.3-0.2,3.1c-0.8,2-2.3,1.8-3.1-0.3c-0.4-1.1,0-2.2,1.1-3.1
				C983.6,894.6,984,894.4,984.3,894.4z M975.6,894.9c1.9,0,2.7,1.4,2,3.4c-1.1,2.7-3.4,1.7-3.4-1.6
				C974.2,895.8,974.8,894.9,975.6,894.9L975.6,894.9z M990.6,894.9c0.8,0,1.7,0.4,2,0.9c0.7,1.2-1.8,4.4-2.7,3.5
				C988.6,898.1,989.1,894.9,990.6,894.9L990.6,894.9z M426.2,895.2c1.2,0,2.2,1.6,1.6,3.2c-0.3,0.9-1.1,1.6-1.7,1.6
				c-1.6,0-2.4-3-1.1-4.3C425.4,895.3,425.8,895.1,426.2,895.2z M969.2,895.2c1.2,0,2.2,1.6,1.6,3.2c-0.3,0.9-1.1,1.6-1.7,1.6
				c-1.6,0-2.4-3-1.1-4.3C968.4,895.3,968.8,895.1,969.2,895.2L969.2,895.2z M996.3,895.4c1,0,2.9,1.5,2.9,2.6c0,0.5-0.9,0.9-2,0.9
				c-1.9,0-2.7-2-1.3-3.3C995.9,895.5,996.1,895.5,996.3,895.4L996.3,895.4z M963,896c1,0,1.4,0.9,0.8,2.4c-0.8,2-2.3,2-3,0
				c-0.3-0.9,0.1-1.8,0.9-2.1C962.2,896.1,962.6,896,963,896L963,896z M955.4,896.5c0.6,0,1.2,0.4,1.5,1.1c0.7,1.8-0.7,3.4-2.4,2.7
				c-1.7-0.6-1.6-3,0.3-3.7C954.9,896.5,955.2,896.4,955.4,896.5L955.4,896.5z M948.3,897.2c0.7,0,1.5,0.7,1.7,2.1
				c0.2,1-0.3,1.7-1.2,1.7c-0.9,0-1.6-0.9-1.6-2.1C947.2,897.7,947.7,897.2,948.3,897.2L948.3,897.2z M942.1,897.9
				c0.7,0,1.1,0.7,1.1,2c0,1.1-0.4,2-0.9,2c-1.1,0-2.2-2.6-1.4-3.4C941.3,898.1,941.7,897.9,942.1,897.9L942.1,897.9z M542.8,899.5
				c0.5,0,1.1,0.3,1.9,0.8c1.6,1.2,1.7,1.6,0.6,3c-1.6,2-3.5,2.1-5,0.3c-0.9-1-0.7-1.7,0.7-3C541.8,899.9,542.3,899.5,542.8,899.5
				L542.8,899.5z M1127.4,901.4c0.4,0,0.7,0,0.7,0.1c1.4,1.4-3.7,3.3-12.6,4.8c-11.5,1.8-22.9,2.1-23.8,0.6c-0.3-0.5-0.5-1-0.3-1.1
				c0.2,0,5.3-0.7,11.3-1.5c6.1-0.8,14.1-1.8,18-2.4C1123.5,901.6,1126.1,901.4,1127.4,901.4z M1153.2,902.3c1.3,0,4.1,0.4,7.1,1
				c4,0.8,9.5,1.8,12.1,2.1c3.2,0.4,4.8,1.1,4.8,2.1c0,1.8-3.6,1.7-14.5-0.2c-7.3-1.3-11.8-3.4-10.3-4.9
				C1152.5,902.3,1152.7,902.3,1153.2,902.3z M983.7,903.9c1,0,1.5,0.7,1.3,2.2c-0.5,3.2-2.8,3.5-2.8,0.4
				C982.2,904.9,982.7,903.9,983.7,903.9z M991.1,904.2c0.6,0,1.1,0.7,1.1,2.2c0,1.7-0.5,2.6-1.6,2.6c-1,0-1.5-0.7-1.2-2.2
				C989.6,905.1,990.4,904.2,991.1,904.2L991.1,904.2z M962.2,904.9c0.6,0,1.3,0.7,1.6,1.6c0.7,1.7-0.9,3.9-2,2.8
				C960.8,908.2,961,904.9,962.2,904.9L962.2,904.9z M969.8,904.9c0.9,0,1.4,0.7,1.2,1.7c-0.4,2-2.4,2.8-3.3,1.4
				C966.8,906.6,967.9,904.9,969.8,904.9L969.8,904.9z M996.7,904.9c0.8,0,1.5,0.9,1.5,2c0,2-1.1,2.6-2.3,1.3
				C994.6,907.1,995.1,904.9,996.7,904.9z M975.3,905.1h0.2c0.1,0,0.3,0,0.4,0.1c1,0.2,1.8,1,1.8,1.8c0,0.8-0.8,1.6-1.8,1.8
				c-1.2,0.2-1.8-0.3-1.8-1.8C974.2,905.7,974.5,905.1,975.3,905.1L975.3,905.1z M955.1,905.1c1.2,0,2.3,1.6,1.7,3.3
				c-0.3,0.9-1,1.6-1.5,1.6c-1.5,0-2.3-3.2-1.2-4.4C954.4,905.3,954.8,905.1,955.1,905.1L955.1,905.1z M948.2,906.2
				c1,0.1,1.9,1,1.9,2.3c0,0.8-0.6,1.4-1.4,1.4c-1.7,0-2.9-2.7-1.6-3.5C947.5,906.2,947.9,906.1,948.2,906.2L948.2,906.2z
				 M942.2,907.1h0.1c0.2,0,0.4,0.1,0.5,0.2c0.3,0.3,0.4,1.6,0.2,2.8l-0.4,2.3l-1.2-2.2c-0.9-1.5-0.9-2.4-0.2-2.8
				C941.6,907.2,941.9,907.1,942.2,907.1z M1127.6,913c1.6,0,1.4,0.4,0.4,1.4c-1.2,1.3-5.1,2-15.5,3.1c-17.5,1.8-20.4,1.8-20.4,0.2
				c0-1.3,12.7-3.1,30.5-4.4C1125.1,913.1,1126.7,913,1127.6,913L1127.6,913z M984.2,913.1c0.8,0,1.1,1.2,0.5,3.3
				c-0.4,1.4-1.1,2.5-1.6,2.5c-1.3,0-1.3-4.7,0.1-5.5C983.6,913.2,983.9,913.1,984.2,913.1L984.2,913.1L984.2,913.1z M1152.5,913.1
				c1.7-0.1,5.3,0.5,12.9,1.8c10.9,1.9,12.9,2.5,12.9,4.2c0,0.9-2.3,1.3-3.1,0.5c-0.2-0.2-4.6-0.9-9.7-1.5
				c-9.2-1.1-14.3-2.6-14.3-4.2C1151.2,913.3,1151.5,913.1,1152.5,913.1z M975.6,913.9c1.9,0,2.7,1.4,2,3.4
				c-1.1,2.7-3.4,1.7-3.4-1.6C974.2,914.8,974.8,913.9,975.6,913.9z M990.7,913.9c0.8,0,1.5,0.9,1.5,1.9c0,2.1-1.3,3.4-2.4,2.4
				C988.6,917,989.2,913.9,990.7,913.9z M969.5,914c0.9,0,1.7,0.4,1.7,1.3c0,0.8-0.7,1.9-1.5,2.6c-1.2,1-1.6,0.9-2.1-0.3
				c-0.3-0.9-0.3-2,0-2.6C968,914.3,968.8,914,969.5,914L969.5,914z M996.7,914.3c0.2,0,0.4,0.1,0.5,0.2c0.5,0.3,0.9,1.2,0.9,2
				c0,1.7-1.6,1.9-2.5,0.4C995,915.8,995.7,914.3,996.7,914.3L996.7,914.3z M962.6,914.7c0.5,0,1,0.6,1,1.9c0,0.9-0.6,1.9-1.3,2.1
				c-0.9,0.3-1.2-0.3-1-1.9C961.5,915.5,962.1,914.8,962.6,914.7z M955.4,914.9c0.9,0,1.8,0.8,1.8,2c0,1.1-0.6,2-1.4,2
				c-1.8,0-2.9-1.6-2.1-3C954.1,915.2,954.8,914.9,955.4,914.9z M409.2,914.9h5.1h5.1l-0.7,11.2c-0.4,6.1-1,11.8-1.2,12.5
				c-0.3,0.8-2.2,1.3-5.1,1.3h-4.5l0.6-7.7c0.4-4.2,0.6-9.8,0.6-12.5L409.2,914.9z M496.6,915c1.6,0.1,1.2,0.5-1.6,1.8
				c-4.2,1.9-7.5,4.7-8.9,7.3c-0.5,1-1.2,12-1.5,24.5c-0.3,12.5-0.7,22.9-0.8,23c-1.2,1.3-1.6-4.6-1.6-25.3v-24.2l6.2-3.7
				C491.7,916.6,495.4,915,496.6,915L496.6,915z M948.3,915.2c0.7,0,1.5,0.7,1.7,2.1c0.2,1-0.3,1.7-1.2,1.7c-0.9,0-1.6-0.9-1.6-2.1
				C947.2,915.7,947.7,915.2,948.3,915.2L948.3,915.2z M941.8,915.2c0.3,0,0.6,0.3,0.9,1c0.3,0.9,0.4,2.4,0.2,3.4
				c-0.3,1.6-0.5,1.5-1.7-0.5c-0.9-1.7-1-2.7-0.2-3.4C941.3,915.4,941.6,915.2,941.8,915.2L941.8,915.2z M510.7,922.3L510.7,922.3
				c0.7-0.2,1,10,1,31.9c0,28.9-0.2,32.3-1.7,32.6c-2,0.4-2.4-3.6-1.8-12.7c0.9-13.7,0.2-17.8,0.2-25c-0.4-10.3-0.3-11.1,0.5-18.9
				C509.3,925.9,510.1,922.4,510.7,922.3L510.7,922.3z M983.6,922.5c1,0,1.7,1.4,1.1,3.4c-0.4,1.2-1,2.1-1.5,2.1
				c-1.5,0-2.1-3.2-0.9-4.7C982.8,922.7,983.2,922.5,983.6,922.5L983.6,922.5z M990.7,922.9c0.8,0,1.5,0.9,1.5,2s-0.7,2-1.5,2
				s-1.5-0.9-1.5-2S989.8,922.9,990.7,922.9z M996.8,923.2C996.8,923.2,996.9,923.2,996.8,923.2c0.2,0,0.3,0.5,0.3,1.5
				c0,2.3-0.5,2.9-1.4,1.5c-0.3-0.4-0.1-1.5,0.4-2.2C996.5,923.4,996.7,923.2,996.8,923.2L996.8,923.2z M969.2,923.2
				c1.2,0,2.3,1.4,1.5,2.7c-0.4,0.6-1.1,1.1-1.6,1.1c-1.5,0-2.3-2.1-1.1-3.3C968.4,923.3,968.8,923.2,969.2,923.2L969.2,923.2z
				 M976.3,923.5c0.7,0,1.4,0.5,1.4,1.5c0,0.8-0.8,1.6-1.8,1.8c-1.3,0.3-1.7-0.2-1.5-1.5C974.6,924.1,975.5,923.5,976.3,923.5z
				 M941.1,923.9c0.5,0,1.1,0.7,1.5,1.5c0.6,1.6-0.6,2.9-1.7,1.8C939.9,926.3,940,923.9,941.1,923.9z M955.8,923.9
				c0.9,0,1.4,0.7,1.2,1.7c-0.4,2-2.4,2.8-3.3,1.4C952.8,925.6,953.9,923.9,955.8,923.9L955.8,923.9z M962.7,923.9
				c0.8,0,1.4,0.7,1.4,1.5c0,1.5-2.1,2.1-3.3,0.9C959.9,925.4,961.1,923.9,962.7,923.9z M948.4,924.2c0.9,0,1.8,0.9,1.8,2.3
				c0,1.5-2.5,2-3.4,0.6c-0.3-0.4-0.1-1.4,0.3-2.1C947.5,924.5,947.9,924.2,948.4,924.2z M1153.9,924.3c1.2,0,3.2,0.2,5.9,0.6
				c3.8,0.6,9.3,1.4,12.3,1.8c3,0.4,5.5,1.2,5.5,1.7c0.1,2.3-21.8,0.4-24.4-2.1C1151.8,925,1151.8,924.3,1153.9,924.3L1153.9,924.3z
				 M1124.6,924.3c2.1,0,3.5,0.1,3.8,0.4c1.6,1.6-4.3,3.1-15.2,3.7c-5.8,0.3-12.5,0.8-15,1.1c-4.7,0.5-6,0-6-2.3
				c0-1,1.7-1.3,6.2-1.3c3.4,0,11.4-0.5,17.6-1.1C1119.5,924.5,1122.5,924.4,1124.6,924.3L1124.6,924.3z M498,929.9
				c2.1,0,4.4,0.6,5.6,2c1.9,3,3,10.4-0.5,12.5c-3.2,0.5-9.7,2.6-10.7,0.1c-2-4.7-3.7-6.6,0.8-12.5
				C493.9,930.6,495.9,929.9,498,929.9z M474.1,934c4.9,0.1,4.9,2.6,4.3,15.2c-0.3,6.5-0.8,11.7-1.1,11.7
				c-2.1-0.3-12.5-5.1-15.1-6.9c-2.9-2.1-3-2.3-1.5-4c1.3-1.4,1.4-2.3,0.6-3.8c-1.5-2.7-1.4-7.4,0.2-9.5c0.9-1.2,3.3-1.9,8.4-2.3
				C471.5,934.1,472.9,934,474.1,934z M1124.6,934.7c1.6,0,2.7,0.1,3,0.3c1.6,1.5-0.4,2.8-5.3,3.4c-2.7,0.4-10.4,1-17.1,1.4
				c-9.5,0.5-12.3,0.4-12.6-0.6c-0.8-2-0.1-2.2,9.4-2.8c4.9-0.3,12.5-0.9,16.9-1.3C1120.9,934.8,1123,934.7,1124.6,934.7
				L1124.6,934.7z M452.2,935.3c0.9,0,1,1.5,1,7.1c0,8.4,0.2,8.2-7.3,5.9c-4.3-1.3-4.8-1.8-4.8-4.4c0-2-0.5-2.9-1.5-2.9
				c-3.3,0,2.1-3.8,6-4.2c2.2-0.2,4.8-0.8,5.8-1.2C451.7,935.4,452,935.3,452.2,935.3z M1151.5,935.3c0.3-0.3,6.2,0.1,13.1,0.8
				c10.4,1,12.6,1.5,12.4,2.8c-0.4,1.9-1.3,2-12.2,0.9C1156.9,939.1,1150,936.7,1151.5,935.3z M1155.7,946
				c6.4-0.1,19.5,1.6,21.4,3.5c1.3,1.2,1.1,1.4-1.6,1.4c-1.7,0-3.2-0.2-3.5-0.4c-0.2-0.2-4-0.5-8.4-0.6c-7.9-0.2-11.5-1.1-11.5-3
				C1152.2,946.4,1153.6,946.1,1155.7,946L1155.7,946z M1128,946.4c0.4,0.4-0.2,1.3-1.3,2.1c-1.5,1.1-5.5,1.4-16.2,1.4
				c-7.8,0-14.8,0.2-15.6,0.5c-0.7,0.3-1.9,0.1-2.7-0.4c-1.1-0.7-1.1-1-0.1-1.7C1093.9,947.4,1127.1,945.5,1128,946.4L1128,946.4z
				 M1153.3,956.3c0.8-0.1,2.1,0.1,4,0.6c2.4,0.6,7.9,1,12.2,1c6.9,0,7.8,0.2,7.5,1.8c-0.4,2-1.7,2.1-14.2,1.3
				c-6.9-0.4-9.1-1-10-2.3C1151.8,957.2,1151.9,956.4,1153.3,956.3z M1110.9,957.4c16.6-0.5,19.1-0.2,16,2.3
				c-0.7,0.6-8.2,1.2-16.7,1.4c-13.5,0.3-15.7,0.1-17.5-1.4c-1.5-1.3-1.7-1.7-0.6-1.8C1093,958,1101.4,957.7,1110.9,957.4z
				 M1164.6,967.9c11.9,0,12.6,0.1,12.6,2c0,1.9-0.6,2-9.8,1.9c-10.6-0.1-14.4-0.8-15-2.7C1152.1,968.2,1155.1,967.9,1164.6,967.9z
				 M1111.4,968c16.3,0,19.3,0.6,14.8,2.9c-2.7,1.4-32.7,1.4-33.6-0.1C1091.2,968.6,1095.1,968,1111.4,968L1111.4,968z
				 M1163.6,978.9l12.5,0.2l2.1,1.9c0.4,0.3-5.8,0.9-13,0.9c-10.9,0-13-0.2-13-1.5C1152.2,979.2,1154.1,978.9,1163.6,978.9
				L1163.6,978.9z M1110.6,979.2c14-0.2,17.3,1.1,17,2.1c-0.3,1-4.5,0.3-17.8,0.5c-14,0.2-17.7,0-17.3-1
				C1092.7,979.8,1097.3,979.4,1110.6,979.2L1110.6,979.2z M1099,989.6c10.5,0,29.6,1,29.9,2c0.5,1.6-4.2,1.9-20.7,1.4
				c-13.9-0.5-19.1-1.4-15.9-2.9C1092.9,989.7,1095.5,989.6,1099,989.6L1099,989.6z M1165.9,989.7c10.2-0.3,11.2,0.7,11.2,2.3
				l-23.9,0.6l-0.5-1.7L1165.9,989.7z M1099.3,999.7c4.4,0,11,0.3,19.8,0.9c9.4,0.6,9.4,0.6,7.1,2.5c-2.2,1.8-4.3,1.4-6.3,1.4
				c-0.4,0-6.3-0.8-13.4-1.1c-13.4-0.6-14.8-0.9-14.2-2.7C1092.6,1000,1094.9,999.7,1099.3,999.7z M1167.2,999.9
				c8.8-0.3,9.5-0.1,9.5,1.6c0,1.7-1,1.9-11.7,2.2c-11,0.3-14.5-0.5-12.3-2.6C1153.4,1000.4,1153.8,1000.3,1167.2,999.9z
				 M1098.9,1009.7c1.5-0.1,3,0,4.4,0.3c2.4,0.5,8.5,0.9,13.6,0.9c9.1,0,13.8,1.2,12.7,3.1c-0.3,0.5-2.9,0.9-5.8,0.8
				c-5.8-0.2-32.9-2.4-33.7-2.8v0c0-0.2,1.8-0.8,4.2-1.5C1095.9,1010.1,1097.5,1009.8,1098.9,1009.7L1098.9,1009.7z M1173,1010.6
				c0.7,0,1.3,0.1,1.6,0.2c5,1.3,4.1,2.9-1.7,2.8c-2.9,0-8.5,0.3-12.4,0.8c-4.8,0.6-7.3,0.5-7.8-0.2c-0.4-0.6-0.3-1.3,0.1-1.5
				C1154.5,1011.6,1167.9,1010.4,1173,1010.6L1173,1010.6z"/>
			<path id="path1031-4-0" class="st2" d="M678.9,994c-0.6,0.6,7,4.1,11.1,5c4.1,0.9,8.2,1.4,12.3,2.3c1.3,0.3,1.7,1.1,0.7,1.6
				c-1.3,0.8-4.5,0.4-4.5,2.8c0,1.3,34.6,6.5,22.4,13.2c-3.4,1.8-5.2,4.8-19.4,6.4c-26.5,3-45.9,9.3-65.2,11.2
				c-23.1,2.2-27.4,2.7-52.5,6c-27.5,3.6-65,12-80.5,17.9c-19.4,7.4-26.8,17.3-20.2,27.2c15,23.5,60.2,28,85.7,32.8
				c76.5,13.7,91.2,16.4,108.5,20c26.9,5.5,46.7,10.9,62.4,17.1c11.4,4.5,19.3,12.4,18.5,18.4c-5.9,44.1-280.1,29.6-195.4,63.5
				c15.5,6.2,126.9,43,197.2,42.9c5.6,0,103.6,15.3,293.7-101.4c18.4-11.3-41.2-45.2-50.2-49.8c-11.9-6.1-24.6-10.6-37.5-14
				c-9.6-2.6-19.9-2-29.4-5c-10.4-3.3-26.4-6.1-29.5-14c-3.6-9.2,13.9-19,21.2-24.8c11.6-9.3,33.6-18.3,29.3-32.2
				c-5.5-17.8-38.7-10.4-54.3-13.1c-5-0.9-25.1,1.3-29.4-4.3c-3.1-3.9,12.6-10.1,16.6-10.3c4.5-0.2,13.4-2,18-3
				c-4.5,0.4-14.7,0.6-24,1.4c-5.1,0.4-31.1-0.3-30.7,9.3c0.2,5.4,4.3,9.1,13.1,11.8c7.9,2.5,22.7,2.1,30.6,5.4
				c2.4,1,5.5,5.1,2.5,8.5c-3,3.4-8.5,8.1-12.4,10.1c-8.4,4.3-42.2,8.6-49.3,14c-25.2,19.2,22.5,35.3,11.6,47.2
				c-4.5,4.9-18.7,0.2-25.7,0c-22.2-0.9-41.3-14.7-62.3-20.9c-9.9-2.9-20.9,0.6-31.5-1.7c-11.5-2.5-22.5-10.9-31-14.4
				c-9.3-3.9-17-1.4-22.8-4.1c-6.9-3.1-8.8-5.3-8.8-9.6c0-3.4,3-7.4,13.1-9.6c22.4-5,41.5-10.1,56.5-18.1c7.6-4.1-6.5-12.5-2.1-16.5
				c12.5-11.6,19.3-21.3-17.5-26.1c-10-1.3-20.8-0.6-30.8-1.8C684.1,994.6,679.1,993.8,678.9,994L678.9,994z M908.5,1010.3
				c1.1-0.1,1.8-0.2,2.2-0.3c0.4-0.1,0.6-0.2,0.6-0.2h0h0h0l0,0l0,0h0l0,0h0h0C911.2,1009.8,910.1,1010,908.5,1010.3L908.5,1010.3z
				 M641.2,1050.6c0.7,0,0.6,0.3,0.6,0.7c0,0.4-3.3,1.6-7.3,2.7c-21.5,5.5-40.3,13.1-45.1,18.3c-3.3,3.5-2.8,5.2,2.3,9.5
				c4,3.3,110.9,30,78.4,25.9c-49.8-6.4-78.1-13.7-90-20.7c-10.2-5.5-17.1-10,4.6-20.8c12.6-5.6,16.5-9.1,43.9-13.7
				C637,1051,640,1050.5,641.2,1050.6L641.2,1050.6z M894.4,1072.6c-3.5,2.9-19,5.4-18.7,13.1c0.1,2.8,3.2,6.7,4.5,9.9
				c2,4.7-6.9-6.2-8.9-7.9c-2.4-2.2-2-5.7-0.2-7.6c2.8-3,6.6-3.8,10.1-5.4C885.2,1072.9,897.2,1070.4,894.4,1072.6L894.4,1072.6z"/>
		</g>
		<path id="path285" class="st1" d="M762.4,290.5c-136.1,0-266.7,54.1-362.9,150.3S249.2,667.7,249.2,803.8s54.1,266.7,150.3,362.9
			C495.8,1263,626.3,1317,762.4,1317s266.7-54.1,362.9-150.3c96.3-96.3,150.3-226.8,150.3-362.9c0-80-18.7-158-53.6-228.3
			c-3.7,1.7-10.9,4.5-20.9,8c34,67.7,52.2,143.1,52.2,220.3c0,130.2-51.7,255.1-143.8,347.2c-92.1,92.1-216.9,143.8-347.2,143.8
			c-66.9,0-132.4-13.6-192.7-39.4c-57.1-24.4-109.7-59.6-154.5-104.4c-92.1-92.1-143.8-216.9-143.8-347.2s51.7-255.1,143.8-347.2
			s216.9-143.8,347.2-143.8c122.5,0,240.3,45.8,330.5,127.9c3.7-2.1,7.8-4.1,11-5c7.3-2,14,0.1,19.5,3.2
			C1027.5,343.9,897.7,290.5,762.4,290.5z"/>
		<g id="g265-5" transform="matrix(1.1813645,0.04817959,-0.04817959,1.1813645,-162.97489,-104.66836)">
			<path id="path259-04" class="st1" d="M543.3,403.8c-18.3,16.8-12.8,11.4-33.4,30.2c2.6,10.8,7,28.7,9.7,39.8
				c4.8,20,9.2,37.3,11.2,44.7c1.6,5.8,2.2,5.4-11.9,6.7c-28.5,2.6-55.4,7.4-59.4,10.6l-1.5,1.2l2.3,0.8c1.3,0.4,9.8,1.9,19.1,3.1
				c19.6,2.7,26.4,2.9,44.4,1.1l12.4-1.2l1.6,4.6c1.9,5.4,3.9,7.2,10,9.3c5.3,1.8,4.8,1.9-11.1,1.9c-7.2,0-16.9,0.1-21.4,0.1
				c-4.6,0.1-9.4,0.1-10.7,0.1c-6.8,0-8.4,0.3-10.1,1.3c-2.6,1.6-2.6,3.5-0.1,7.8c9.3,15.5,31.6,20.3,98.4,20.8
				c9.1,0.1,23.7,0.2,32.5,0.2s32,0.4,51.8,0.7c19.7,0.3,38.7,0.5,42.1,0.5c6.7,0,71.2,0.9,84.9,1.2c4.6,0.1,11.4,0.1,15.2,0.1
				c3.8-0.1,7,0,7.1,0.1c0.1,0.1-2.1,3.8-4.9,8.2s-5.6,9.7-6.3,11.8c-1.4,4.2-0.5,3.8-8.7,4.1c-10.5,0.4-36.5,13.1-38.3,18.7
				c-2.1,6.7,2.7,12.3,15.9,18.8c6,2.9,8.4,4.5,8.7,5.8c0.4,1.5,4.9,5.1,8.9,7.1c10,4.9,25.2,0.1,29.2-9.2c0.9-2.1,2-3.3,4.4-4.6
				c10.5-5.9,10.1-17.8-1-27.3c-5.3-4.6-5.3-4.5,0-13.4c7.2-12,15.2-20.4,19.1-20c7.5,0.8,47.1-0.7,69.2-2.6l13.7-1.2l3.5,2.7
				c3.8,2.9,8.9,8.5,8.8,9.6c0,0.4-2.1,1.7-4.6,2.8c-11.9,5.6-14.1,7.7-13,12.7c1,4.8,7.9,10.2,17.6,13.8c2.1,0.8,3.4,1.9,4.5,3.7
				c7.5,12.5,27.1,12.4,35.1-0.3c3.5-5.5,3.1-5.4,6.8-1.9c3.7,3.5,6.3,4.9,13.8,7.5c4.9,1.7,5.3,2,9.4,7
				c10.4,12.7,28.2,11.7,36.6-2.2c1.4-2.3,3-3.8,5.9-5.3c16.1-8.7,6.7-29.6-15.9-35.2l-6.1-1.5l-3.2-6.4c-1.8-3.5-3.2-6.6-3.1-6.9
				s-0.7-1.8-1.6-3.5c-3.2-6-3.4-5.9,6.7-7.3c23.5-3.3,29.8-5.3,35.3-13.4c6,15.6,15,26.6,25,29.5c2.1,0.6,3.7,0.9,5.3,0.8
				s3.4-0.5,5.9-1.3c11.2-3.7,18.8-13.6,23.3-30.2c3.7-13.7,3.8-16.2,0.4-8.2c-5.7,13.5-15.8,23.7-25.2,25.7
				c-11.2,2.4-23.6-6.2-31.9-20.7c0.7-1.1,1.6-1.9,2.1-1.9c0.6,0.1,5.1-1.2,10.2-2.7c8.7-2.7,30-9,48.1-14.2c9-2.6,23.6-7,38.8-11.7
				c14.4-4.4,17.4-6.5,16.7-11.5c-1.1-7.8-14.4-11.6-38.2-10.8c-17.7,0.6-16.1,0.7-16.4-1.6c-0.9-6.8-11.9-13.2-30.9-17.8
				c-7.9-1.9-43.6-6.6-46.4-6c-0.5,0.1-5-0.1-9.9-0.4c-10.1-0.7-19.7-1-38.6-1.2c-44.1-0.6-39.2,0.1-51.7-7.3
				c-3.9-2.3-8-4.7-9.1-5.3c-4.4-2.6-20.2-9.6-26.8-12c-45.8-16.4-88.4-12.7-137.5,11.9c-26,13-30,14.6-30.6,11.8
				c-0.4-2.2-21.7-27.1-28.7-33.7c-1.2-1.1,2.5,4,11.1,15.4c12.8,17,14.8,20.5,12.5,22.1c-2.3,1.6-53.9,16.1-69,19.3
				c-11.7,2.5-31.3,0.5-41.7-4.4c-9.3-4.3-13.5-8.3-29.8-28.3c-8-9.8-21.5-26.3-29.9-36.7C569.1,416.5,561.5,404.5,543.3,403.8
				L543.3,403.8z M1099.5,420.8c-0.4,0-0.8,0-1.3,0c-1.7,0.1-3.5,0.6-6,1.5c-11.5,4-19.3,14.5-23.9,32.1c-3.8,14.4-3.9,17.1-0.4,8.6
				c5.9-14.2,16.2-25.2,25.9-27.4c14.9-3.4,31.9,12.3,39.4,36.2c1.8,5.8,3.4,10.4,3.5,10.2c0.1-0.2-0.5-4.4-1.5-9.4
				c-5.1-26.9-17.5-46.9-31.6-51C1102.1,421.2,1100.8,420.9,1099.5,420.8L1099.5,420.8z M566,422.4c1.3,1.2,2,1.5,34.7,41.9
				c26.8,33.1,33.7,38.9,55.3,41.4c2.4,0.3,4.1,0.7,3.9,1.1c-0.5,0.6-11,3.5-20.6,5.7c-2.9,0.7-5.2,1.4-5.3,1.6l0,0l0,0l0,0
				c0,0,0,0,0,0l0,0l0,0l0,0l0,0l0,0c0.4,0.5,38.9-6.2,46.3-8.1c1.4-0.4,8.2-2.1,15.2-3.8c11.9-2.9,26.9-7.1,47.2-13.1
				c12.9-3.8,24.5-8.3,34.5-13.5l9-4.7l-0.7,6.8c-1.2,11.4,5.7,37.3,12.2,45.9l2.5,3.3l6.4,0.3c5.9,0.3,20.6-0.5,43-2.2
				c4.8-0.4,12.6-0.9,17.4-1.1c16-0.7,37.2-2.8,40.3-3.9c3.5-1.2,6.8-4.3,14.2-12.9c10.4-12.2,22.8-19.6,38.4-22.9
				c8.2-1.7,10.3-1.8,53.2-1c41.3,0.7,75.1,3.3,74.1,5.7c-0.3,0.6-1.3,2.8-2.4,4.9c-2.9,5.8-3.2,13.4-0.8,20.7l1.2,3.6l-11.8,9.6
				c-2.5,2-4.9,3.9-7.3,5.7c0-0.1-0.1-0.1-0.1-0.1c0,0,0,0.1,0,0.2c-18.3,13.9-34.2,21.8-59.2,30.2c-19,6.3-42.7,11.8-60.5,14
				c-3,0.4-7.9,1.1-10.9,1.6c-7,1.1-18.7,2-18.7,1.4c0-0.3,0.8-1,1.7-1.6c10.6-7.5,2.1-20.8-17.5-27.4c-17.7-6-55.2-4.9-85.5,2.4
				c-6,1.4-9.8,1.6-42,1.6c-13.3,0-30.4,0.1-46,0.3c-8.9,0.1-19.4,0.2-23.2,0.2c-14.7-0.1-31.6,0-43.9,0.3
				c-23.2,0.5-34.9,0.5-42.2,0.1c-4-0.2-8.3-0.4-9.6-0.4s-8.7-0.5-16.5-1.1l-14.1-1.1l-2.3-8c-2.2-7.7-2.3-8-0.8-8.1
				c4.7-0.5,19.9-2,30.4-2.8c17-1.4,22-3.4,20.5-8.1c-1.7-5.3-17-7.5-41.2-6c-18.5,1.1-16.7,1.5-18.6-3.9
				c-11.2-33-16.2-52.9-31.1-93.3C536.7,423.3,561.3,421.8,566,422.4L566,422.4z M533.2,427.4c0.4,1.5,2.5,7.8,4.7,14
				c17.8,52.9,26.8,80.2,26.4,80.4c-0.2,0.1-5,0.5-10.8,1c-5.8,0.4-11.5,0.8-12.9,0.8l-2.4,0l-1.3-5.9c-0.7-3.2-3.4-14.1-5.8-24
				c-2.5-10-5.7-23.1-7.1-29.1c-1.4-6.1-4.2-17.4-6.1-25.2c-5.3-15.9-2.4-17.6,14.3-15.7C532.3,424.2,532.4,424.5,533.2,427.4z
				 M869.5,449c4.7-0.1,9.2,0.1,13.4,0.6c7.3,0.8,22.3,4.1,25.1,5.5c0.8,0.4,3,1.1,4.9,1.6c7,1.8,30.1,11.7,30,12.8l0,0l0,0l0,0l0,0
				l0,0c-0.1,0.2-2.6-0.4-5.5-1.4c-40.7-13.7-80-16.4-116.8-8.2c-8.6,1.9-7.8,0.5,1.3-2.3C839.4,452.2,855.4,449.3,869.5,449
				L869.5,449z M797.5,465.6c0.2,0,0.3,0,0.3,0.1c0.2,0.2-0.3,1.6-1.1,3.2c-4.1,8.5-0.9,20.1,7.1,25.3c12.9,8.4,41.7,16.5,60.4,16.9
				c23.5,0.5,35-2.7,49.6-14c18.1-13.9,41.1-22,50-17.5l2.3,1.2l-1.8,0.5c-1,0.3-4,1-6.7,1.5c-15.9,3.1-27.4,10.3-39.3,24.5
				c-10.3,12.3-6.3,11.3-58.8,14.5c-12.1,0.7-26.2,1.6-31.3,2s-11.6,0.7-14.3,0.8c-13.6,0.4-14.2,0.1-18.3-10.1
				c-7.5-18.5-10.2-38.1-6.1-44.4C790.7,468.6,796,465.6,797.5,465.6L797.5,465.6z M1093.9,488.6c9.4-0.1,32.2,8.6,35.7,13.5
				c3.2,4.4-15.6,15.7-30.6,18.4c-6.3,1.1-7.1,0.8-9.9-3.7C1083.7,508.1,1087,488.6,1093.9,488.6L1093.9,488.6z M776.1,479.3
				c-0.7,0-1.8,0.4-3.3,1c-13.4,5.5-23.5,11-25.5,13.9c-2.7,4-0.3,18.2,3.7,21.1c1.7,1.3,1.8,1.3,21.8,2.1c9.9,0.4,11.6-1.1,9.5-8.2
				c-2.1-6.9-4.6-20.2-4.6-24.3C777.6,480.9,777.5,479.4,776.1,479.3z M1062.4,490.8c-5.8-0.3-11.7,0.2-17.4,1.3
				c-5.1,1-14.6,5.3-14.6,5.3s8.5-2,12.9-2.6c7-1,14.1-1.7,21.1-1.5c4,0.1,11.9,1.3,11.9,1.3s-5.3-2.6-8.1-3.1
				C1066.3,491.1,1064.4,490.9,1062.4,490.8z M1068.7,497.4c-1.5,0-3.2,0.1-5.1,0.5c-12.1,2.2-15.9,8-7.8,11.6
				c6.3,2.8,18.9,1.4,20.3-2.3C1078.3,501.3,1075.3,497.6,1068.7,497.4z M1165.3,510.6c10.9,0.7,18.5,2.4,18.3,4.9
				c-0.2,1.6-9.3,4.7-42.1,14.2c-12.4,3.6-28.3,8.2-35.3,10.3c-14.5,4.3-15.8,4.5-12.5,1.5c1.3-1.2,3.6-4.1,5.1-6.5
				c5.1-8.1,6.1-9,11.7-11.1c7.5-2.8,12.2-5.2,17.3-8.9c3.5-2.6,5.2-3.3,8.2-3.6c5.9-0.6,11.8-0.9,17.4-1
				C1157.6,510.2,1161.6,510.3,1165.3,510.6L1165.3,510.6z M1031,510.6c0,0,8.3,3.8,12.6,4.9c6.8,1.7,14,3.1,21,2.2
				c4.2-0.5,12-4.4,12-4.4s-5.5,0.7-8.2,0.7c-7.7,0.1-15.4-0.4-23.1-1.2C1040.5,512.4,1031,510.6,1031,510.6L1031,510.6z
				 M610.3,523.4c3.2,0.2,5.3,0.7,7.5,1.4c5.2,1.6,4.7,2.3-2.4,3.3c-4.7,0.7-36.5,3.6-41.4,3.8c-1.1,0-6.2,0.4-11.2,0.9
				c-41.9,3.6-52.2,4.5-55.5,4.6c-6.6,0.3-25.2-1.2-24.3-2c0.9-0.8,18.6-3.1,37.2-4.9C581.7,524.4,600.8,522.7,610.3,523.4
				L610.3,523.4z M569.1,538.2c1,0.1,1.5,1,2.9,5.1c2,5.9,2.6,9.1,1.7,9.1c-2.7,0-5.2-0.3-12.9-1.6c-12.5-2-14.1-2.6-16.3-5.6
				c-3.3-4.7-3-4.9,10.5-5.9c6.6-0.5,12.7-1,13.6-1.1C568.7,538.2,568.9,538.2,569.1,538.2L569.1,538.2z M865.9,550.4
				c24.8,0,43.1,5.2,50.8,14.8c1.6,2,1.9,3,1.7,5.4l-0.3,2.9l-22.7,0.1c-36.3,0.1-56.5,0.2-68,0.4c-5.9,0.1-13.2,0.2-16.3,0.2
				s-10.7,0.1-17,0.1c-6.3,0.1-19.5,0.1-29.4,0.1c-9.9,0-26.4,0.2-36.7,0.3s-25.6,0.3-33.9,0.4c-23.7,0.1-41.8,0.4-55.1,0.8
				c-6.7,0.2-20.2,0.4-30.1,0.5c-21.2,0.1-61.5-3.6-83.5-7.8c-24.8-4.7-29.4-6.5-15.8-6.3c10.8,0.2,47.3,0,77.4-0.3
				c15.2-0.1,35.8-0.3,45.7-0.4c21.6-0.2,117.2-1.3,155.4-1.8c15-0.2,36.4-0.5,47.4-0.6c25.6-0.3,35.8-0.5,36.7-0.7
				c1.4-0.4-18.6-2.4-26.3-2.7c-24.5-0.8-25.8-1.5-6.9-3.9C848.7,551,857.6,550.4,865.9,550.4L865.9,550.4z M1000.2,579.2
				c2.3,0.1,2.3,1,3,2.6c0.6,1.5,3,7.2,5.3,12.6c4.8,11.3,4.8,11,2.1,12.4c-1.1,0.5-3.5,1.9-5.4,3.1c-5,3.2-4.9,3.2-6.7-0.9
				c-4.1-9.7-19.3-17.2-32.3-15.9l-4.3,0.4l-3.5-4.8c-3.9-5.5-4.1-5.2,4.1-5.7c2.9-0.2,12.4-1.2,21.3-2.2
				C993.4,579.7,997.9,579.1,1000.2,579.2z M1036.9,605.3c14.1,0.8,26.4,9.9,25.3,20c-0.6,5.3-8.6,8.3-22.4,8.5
				c-23,0.3-42.3-5-41.6-11.5c0.5-4,23-15.7,32.5-16.8C1032.9,605.3,1034.9,605.2,1036.9,605.3z M810.5,619.7
				c10.8,0.1,20.4,4.7,24.5,12.4c5.4,10.1-1,15.2-21.5,16.7c-3.3,0.2-9.8,0.2-14.5-0.2l-8.6-0.6l-5.5-3.1c-3-1.7-6.1-3.4-6.8-3.8
				c-3.1-1.8-5.1-6.5-3.4-8.1c2.9-2.8,18-10.1,24.8-11.9C803.1,620.1,806.9,619.6,810.5,619.7z"/>
			<path id="path1-6-0" class="st3" d="M554.5,410.6c-3.7,1.5-14.8,12.6-14.8,12.6l26.5-0.9C563.6,419.6,556.3,409.8,554.5,410.6z
				 M1026.6,529.1l-1.7,0c-1,0-3.6,0.1-5.9,0.2c-2.3,0.1-15.9,0.3-30.3,0.5c-14.4,0.2-27,0.5-28.2,0.6c-2.1,0.2-2.9,1.4-5.3,7.6
				l-0.8,2.2l4,0.1c20.7,0.6,22.2,0.4,44-4.9c11.3-2.8,21.3-5.3,22.4-5.7L1026.6,529.1z M953.8,531c-1-0.1-4.6-0.2-8-0.2
				s-13.3,0.2-21.9,0.3c-28.5,0.4-58.5,0.9-78.7,1.4c-10.9,0.3-24.9,0.6-31,0.6s-17.1,0.3-24.4,0.6s-25,0.6-39.4,0.8
				c-14.4,0.2-30.5,0.6-35.9,0.7c-18.4,0.7-20.9,0.7-32.1,0.9c-6.1,0.1-11.5,0.2-11.9,0.3c-0.2,0-0.3,0.1-0.3,0.1c0,0,0,0,0,0
				c0.1,0.3,3.2,0.5,7.2,0.5c2.7,0,8.4,0.1,12.8,0.2c19.9,0.5,52.7,1,63.8,1c6.7,0,28.8,0.2,49.2,0.5s46.9,0.6,58.9,0.6
				c38.1,0.2,66.6,0.4,78,0.6c6.1,0.1,11.4,0.1,11.8,0.1s1.3-2.1,2.1-4.5l1.4-4.4L953.8,531z M668.7,536.7c-0.2,0-0.4,0-0.6,0
				c-0.6,0.1-0.4,0.3,0.3,0.5c0.7,0.1,1.1,0,0.9-0.2C669.3,536.8,669,536.7,668.7,536.7L668.7,536.7z"/>
			<path id="path1-3-7-8-03" class="st3" d="M562.5,450c-0.3,0-0.6,0-0.9,0.1c-2.5,0.8-9.2,7.2-9.3,8.8c0,0.6,0.7,1.3,1.5,1.7
				c0.8,0.3,1.1,1,0.6,1.6c-0.5,0.5-1.9,0-3.2-1.2c-2.4-2.3-6.3-3-6.4-1.2c0,0.6,1.6,1.8,3.6,2.7c3.8,1.7,8.6,6.5,6.5,6.4
				c-0.7,0-4.5-1.5-8.5-3.3c-5-2.2-7.1-3.8-6.8-5.2c0.7-3.3-1.8-2.2-2.8,1.1c-1.1,3.9-0.5,4.9,5.3,8.9c7.9,5.3,5.6,11.9-4.1,11.6
				c-2.7-0.1-3.8,0.5-3.9,1.9c0,1.3,0.6,1.8,1.8,1.3c1-0.4,1.9-0.1,1.8,0.5c0,1.4,4.1,1.8,5.4,0.5c1.6-1.5,12.8-2.6,15.4-1.5
				c2,0.8-1.2,4-3.9,4c-3.6-0.1-4.8,3-3.6,9.1c1.3,6.6,0.5,9-2.2,6.7c-2.2-1.9-4.9,0.2-3.9,3c1.1,3.3,5.4,2.4,10.3-2.1
				c4.3-4,4.6-4.6,4-9.5l-0.7-5.3l4.7,4.8c3.2,3.4,5.3,4.6,6.8,4.1c1.4-0.5,2.8,0.1,3.9,1.6c2.5,3.5,2.2,3.9-3,5.4
				c-4,1.2-4.3,1.5-2.2,2.4c4,1.7,8.8,1.5,10.5-0.4c0.9-1,2-4.3,2.4-7.4c0.8-5.4,0.7-5.6-2.5-5.7c-4.7-0.1-5.1-3.1-1.2-7.9
				c5-6.2,4.4-14.1-1.9-25c-3.3-5.6-5-5.4-2.4,0.3l1.8,3.9l-3.5-2.9c-2.3-1.9-3.5-4.1-3.5-6.3C568.6,454,565.4,450,562.5,450
				L562.5,450z M578.3,454.8c-1.2,0-2.2,0.5-2.2,1.2s0.8,1.3,1.8,1.3c1.1,0,1.8,1.2,1.8,2.6c0,1.4,0.6,3.8,1.4,5.3
				c1.4,2.6,1.5,2.4,2-2.7C583.6,456.9,582.5,454.9,578.3,454.8z M568.4,463.2c0.7,0,1.2,0.5,1.2,1.2s2.2,4.1,4.8,7.7
				c3.6,4.9,4.7,7.3,4.1,9.4c-1.7,5.9-7.4,4.3-10.1-2.8C566.6,473.7,566.5,463.1,568.4,463.2z"/>
			<path id="path265-3" class="st1" d="M504.1,483.5l-14.2,1.1l15.2,1.2L504.1,483.5z M480.3,497l31.7,4.6l-1.7-4.9L480.3,497z
				 M442,566l45.2,6.5l-2.2-5.1L442,566z M850.5,604.2l70.1,5.9l3.3-3.3L850.5,604.2z M760.5,629.6l-173.1-8.1l165.2,15.7
				L760.5,629.6z"/>
		</g>
	</g>
	<g id="Texte" transform="matrix(1.0077584,0,0,1.0077584,-875.92739,1.0323697)">
		<ellipse id="path2" class="st4" cx="2240" cy="1100.7" rx="579.2" ry="579.2"/>
		<ellipse id="path2-1" class="st4" cx="2240" cy="1100.7" rx="660.2" ry="660.2"/>
		<g>
			<path class="st1" d="M1593.1,1279.3l77.6,3l3.3,9.8l-59.1,51.4l-3.5-10.3l18.1-15.1l-9.7-28.7l-23.3-0.5L1593.1,1279.3z
				 M1628,1289.5l7.9,23.3l16.6-13.6c5-4.1,9.2-7.4,12.6-9.7c-4.7,0.6-9.5,0.9-14.4,0.8L1628,1289.5z"/>
			<path class="st1" d="M1670.6,1418.5l3.4,8.6c-5.4,1.3-10.4,0.9-14.8-1.1c-4.5-2-8.2-5.7-11.1-11.1c-3.7-6.8-4.5-13.2-2.5-19.4
				c2-6.2,6.8-11.3,14.3-15.4c7.8-4.2,14.9-5.5,21.3-3.8c6.5,1.7,11.4,5.7,14.9,12.1c3.3,6.2,4,12.3,1.9,18.5
				c-2.1,6.2-6.9,11.3-14.5,15.5c-0.5,0.3-1.2,0.6-2.1,1.1l-18.7-34.4c-4.9,3-8,6.6-9.3,10.6c-1.3,4-0.9,8,1.2,11.8
				c1.6,2.9,3.6,4.9,6.2,6.1C1663.3,1418.8,1666.6,1419.1,1670.6,1418.5z M1669.3,1386l14,25.8c3.7-2.5,6.1-5,7.1-7.7
				c1.7-4.1,1.4-8.2-0.7-12.1c-1.9-3.6-4.8-6-8.5-7.1C1677.4,1383.6,1673.4,1384,1669.3,1386z M1698.2,1381.2l15.3-0.8l5.6,10.3
				l-17.4-3L1698.2,1381.2z"/>
			<path class="st1" d="M1693.3,1484.8l42.1-31.3l4.8,6.4l-6.4,4.7c4.2-0.6,7.3-0.5,9.3,0.2c2,0.7,3.6,1.9,4.8,3.5
				c1.8,2.4,2.8,5.4,3.2,9.1l-8.5,2.5c-0.3-2.5-1-4.6-2.3-6.4c-1.2-1.6-2.7-2.6-4.5-3.2c-1.9-0.5-3.8-0.5-5.9,0.2
				c-3.1,1.1-6.2,2.8-9.2,5l-22.1,16.4L1693.3,1484.8z"/>
			<path class="st1" d="M1761.8,1528.3c6.9-6.8,13.9-10,21.1-9.4c5.9,0.5,11.2,3,15.8,7.6c5.1,5.1,7.5,11,7.4,17.6
				c-0.1,6.6-3.2,12.8-9.1,18.7c-4.8,4.7-9.3,7.8-13.5,9c-4.2,1.3-8.4,1.3-12.6,0.1c-4.2-1.2-8-3.5-11.2-6.8
				c-5.2-5.2-7.7-11.1-7.5-17.6S1755.5,1534.5,1761.8,1528.3z M1768.3,1534.8c-4.8,4.7-7.3,9.3-7.6,13.7c-0.3,4.4,1.1,8.2,4.2,11.4
				c3.1,3.1,6.9,4.6,11.3,4.3c4.5-0.3,9.1-2.8,14-7.7c4.6-4.6,7.1-9.1,7.4-13.5c0.3-4.4-1.1-8.2-4.2-11.3c-3.1-3.2-6.9-4.6-11.3-4.4
				C1777.6,1527.6,1773,1530.1,1768.3,1534.8z"/>
			<path class="st1" d="M1811.6,1637.1l42.9-58.6l6.5,4.8l-4,5.5c3.1-1,6-1.4,8.8-1c2.7,0.3,5.5,1.5,8.2,3.6
				c3.6,2.6,6.1,5.9,7.5,9.8c1.4,3.9,1.6,8,0.5,12.5c-1.1,4.4-3.1,8.7-6,12.7c-3.2,4.3-6.8,7.7-10.9,10c-4.1,2.3-8.3,3.3-12.6,3
				c-4.3-0.3-8.1-1.7-11.4-4.1c-2.4-1.8-4.2-3.8-5.3-6.2c-1.2-2.4-1.8-4.8-1.9-7.3l-15.1,20.6L1811.6,1637.1z M1845.3,1604.7
				c-4,5.5-5.8,10.3-5.5,14.5c0.3,4.2,2,7.5,5.2,9.8c3.2,2.3,6.9,3,11.2,2c4.2-1,8.4-4.4,12.6-10c4-5.4,5.8-10.3,5.5-14.6
				c-0.3-4.3-1.9-7.6-5-9.9c-3.1-2.2-6.8-2.8-11.3-1.7C1853.5,1595.9,1849.3,1599.2,1845.3,1604.7z"/>
			<path class="st1" d="M1920.8,1654.4c4.4-8.7,10.1-13.8,17-15.6c5.8-1.4,11.6-0.6,17.4,2.3c6.4,3.3,10.6,8.1,12.5,14.4
				c1.9,6.3,1,13.2-2.8,20.6c-3.1,6-6.4,10.3-10,12.8c-3.6,2.5-7.6,3.9-12,4c-4.4,0.1-8.7-0.8-12.8-2.9c-6.5-3.3-10.8-8.1-12.7-14.4
				S1916.8,1662.3,1920.8,1654.4z M1929,1658.6c-3.1,6-4,11.1-2.9,15.5c1.1,4.3,3.6,7.5,7.6,9.5c3.9,2,8,2.2,12.1,0.5
				c4.1-1.7,7.8-5.6,10.9-11.7c3-5.8,3.9-10.8,2.8-15.2c-1.1-4.3-3.6-7.5-7.5-9.5c-4-2-8-2.2-12.1-0.6
				C1935.6,1648.8,1932,1652.6,1929,1658.6z"/>
			<path class="st1" d="M2007.9,1722.5l17-49.7l7.6,2.6l-2.6,7.5c3.1-2.9,5.7-4.6,7.7-5.1c2-0.6,4-0.5,6,0.2c2.8,1,5.4,2.9,7.7,5.7
				l-5.6,6.8c-1.6-1.9-3.5-3.2-5.6-3.9c-1.8-0.6-3.7-0.6-5.5,0c-1.8,0.6-3.4,1.8-4.7,3.5c-2,2.7-3.5,5.8-4.8,9.3l-8.9,26
				L2007.9,1722.5z"/>
			<path class="st1" d="M2107.3,1741.6l-0.4,8c-2.6,0-4.8-0.2-6.7-0.6c-3.2-0.7-5.5-1.7-7-3.1c-1.5-1.4-2.5-2.9-2.8-4.7
				c-0.4-1.8,0-5.3,1.1-10.5l6.3-29.5l-6.4-1.4l1.4-6.8l6.4,1.4l2.7-12.7l9.8-3.4l-3.8,17.9l8.8,1.9l-1.4,6.8l-8.8-1.9l-6.4,30
				c-0.5,2.5-0.7,4.1-0.6,4.9c0.2,0.8,0.5,1.4,1.1,2c0.6,0.6,1.6,1,2.8,1.3C2104.4,1741.3,2105.7,1741.4,2107.3,1741.6z"/>
			<path class="st1" d="M2239.5,1761.6l-3-72.4l9.6-0.4l2.6,63.9l35.7-1.5l0.4,8.5L2239.5,1761.6z"/>
			<path class="st1" d="M2343.6,1772.8l-2.6-8c2,0.2,3.7,0.1,5.1-0.2c1.9-0.4,3.4-1,4.5-1.9c1-0.9,1.8-2,2.3-3.3
				c0.4-1,0.9-3.3,1.4-7c0.1-0.5,0.2-1.3,0.4-2.3l-29.5-47.9l9.4-1.8l16.5,27.8c2.1,3.5,4.1,7.3,6,11.2c0.2-4.2,0.7-8.4,1.3-12.4
				l5.2-32.2l8.7-1.7l-9.5,56.2c-1,6.1-1.9,10.3-2.7,12.6c-1,3.2-2.4,5.6-4.1,7.4c-1.7,1.7-4,2.9-6.8,3.4
				C2347.7,1773.1,2345.8,1773.1,2343.6,1772.8z"/>
			<path class="st1" d="M2425.5,1705.7c-3.3-9.1-3.2-16.8,0.3-23.1c2.9-5.2,7.4-8.9,13.5-11.1c6.8-2.5,13.1-2.2,19.1,0.7
				c5.9,2.9,10.3,8.3,13.1,16.1c2.3,6.4,3.1,11.7,2.6,16c-0.6,4.3-2.3,8.2-5.3,11.5c-2.9,3.3-6.5,5.8-10.8,7.3
				c-6.9,2.5-13.3,2.3-19.2-0.6C2433,1719.7,2428.5,1714.1,2425.5,1705.7z M2434.1,1702.6c2.3,6.3,5.4,10.6,9.3,12.7s7.9,2.5,12.1,1
				c4.2-1.5,7-4.3,8.7-8.5c1.6-4.2,1.3-9.5-1.1-16c-2.2-6.1-5.3-10.2-9.2-12.4c-3.9-2.1-7.9-2.5-12-1c-4.2,1.5-7.1,4.3-8.7,8.5
				C2431.5,1691.1,2431.8,1696.3,2434.1,1702.6z"/>
			<path class="st1" d="M2535.4,1688.6l-25.5-45.9l7-3.9l3.6,6.5c0.6-6.9,4-12.1,10.4-15.7c2.8-1.5,5.6-2.5,8.5-2.7
				c2.9-0.3,5.3,0,7.4,1c2,1,3.9,2.4,5.6,4.4c1.1,1.3,2.6,3.7,4.6,7.3l15.7,28.2l-7.8,4.3l-15.5-27.9c-1.8-3.2-3.4-5.4-4.9-6.6
				c-1.5-1.2-3.2-1.9-5.3-2c-2.1-0.1-4.1,0.5-6.2,1.6c-3.3,1.8-5.6,4.5-6.8,7.9c-1.2,3.4-0.2,8.1,3,14l13.9,25.1L2535.4,1688.6z"/>
			<path class="st1" d="M2685,1583.5l-51.5-51l19.1-19.3c3.9-3.9,7.5-6.6,10.9-7.9c3.4-1.3,6.8-1.6,10.3-0.8
				c3.5,0.8,6.4,2.4,8.8,4.7c2.2,2.2,3.7,4.8,4.4,7.9c0.8,3.1,0.5,6.5-0.7,10.1c4-2.2,7.9-3.1,11.8-2.6c3.9,0.5,7.3,2.2,10.3,5.2
				c2.4,2.4,4.1,5.1,5.2,8.2c1.1,3.1,1.4,5.9,1.1,8.5c-0.4,2.6-1.4,5.3-3,8.2c-1.7,2.8-4.1,5.9-7.4,9.2L2685,1583.5z M2662,1547.2
				l11-11.1c3-3,4.9-5.4,5.8-7.1c1.2-2.2,1.6-4.4,1.3-6.5s-1.4-4-3.2-5.8c-1.7-1.7-3.6-2.8-5.7-3.2c-2.1-0.5-4.2-0.2-6.1,0.9
				c-2,1-4.8,3.4-8.5,7.1l-10.2,10.3L2662,1547.2z M2685.7,1570.7l12.7-12.8c2.2-2.2,3.6-3.8,4.3-4.9c1.3-1.8,2.1-3.6,2.5-5.3
				c0.4-1.7,0.3-3.5-0.3-5.4c-0.6-1.9-1.7-3.7-3.3-5.3c-1.9-1.9-4.1-3.1-6.5-3.5c-2.4-0.4-4.7,0-7,1.1c-2.3,1.2-5.1,3.4-8.3,6.7
				l-11.8,11.9L2685.7,1570.7z"/>
			<path class="st1" d="M2762.3,1497.1l-42.4-31l4.7-6.5l6.4,4.7c-1.8-3.8-2.7-6.8-2.6-8.9c0.1-2.1,0.7-4,1.9-5.7
				c1.8-2.4,4.3-4.3,7.7-5.7l4.9,7.3c-2.3,1-4.1,2.4-5.4,4.1c-1.1,1.6-1.7,3.3-1.7,5.3c0,1.9,0.7,3.8,2,5.5c2,2.7,4.5,5.1,7.5,7.3
				l22.2,16.2L2762.3,1497.1z"/>
			<path class="st1" d="M2783.5,1418.7c-8.6-4.6-13.7-10.3-15.3-17.3c-1.3-5.8-0.4-11.6,2.6-17.3c3.4-6.4,8.2-10.5,14.6-12.3
				c6.3-1.8,13.2-0.8,20.5,3.1c6,3.2,10.2,6.6,12.6,10.2c2.5,3.6,3.7,7.6,3.8,12c0.1,4.4-1,8.7-3.1,12.7
				c-3.5,6.5-8.3,10.6-14.6,12.4C2798.4,1424.1,2791.3,1422.9,2783.5,1418.7z M2787.8,1410.6c5.9,3.2,11.1,4.2,15.4,3.2
				c4.3-1,7.5-3.5,9.6-7.4c2.1-3.9,2.3-7.9,0.7-12.1c-1.6-4.2-5.4-7.9-11.5-11.1c-5.7-3.1-10.8-4.1-15.1-3c-4.3,1-7.5,3.5-9.6,7.4
				c-2.1,3.9-2.4,8-0.8,12.1C2778.1,1403.8,2781.9,1407.5,2787.8,1410.6z"/>
			<path class="st1" d="M2853.5,1332.3l-49.7-16.9l2.6-7.6l7.1,2.4c-4.2-5.5-5.1-11.7-2.8-18.6c1-3,2.5-5.6,4.4-7.7
				c1.9-2.1,4-3.5,6.2-4.2c2.2-0.7,4.5-0.8,7.1-0.5c1.7,0.2,4.4,1,8.3,2.3l30.6,10.4l-2.9,8.4l-30.2-10.3c-3.4-1.2-6.1-1.7-8-1.6
				c-1.9,0.1-3.7,0.8-5.3,2.1c-1.6,1.3-2.8,3.1-3.5,5.4c-1.2,3.6-1.1,7.1,0.3,10.5c1.4,3.4,5.3,6.2,11.6,8.3l27.1,9.2L2853.5,1332.3
				z"/>
		</g>
		<g>
			<path class="st1" d="M1669.7,988.9l-2.2,21.3l-22.9,6.2l-4,38.8l21.2,10.3l-2.2,20.8l-93.2-47.9l2.2-20.7L1669.7,988.9z
				 M1627.5,1021l-37.4,9.6l34.7,16.9L1627.5,1021z"/>
			<path class="st1" d="M1577.6,935.6l-17-13.9l5.3-20.3l14.7,22.8L1577.6,935.6z M1671.2,985.9l-94.5-24.6l18.3-70.1l16,4.2
				l-13.3,51l21,5.5l12.4-47.4l15.9,4.2l-12.4,47.4l25.7,6.7l13.8-52.8l15.9,4.2L1671.2,985.9z"/>
			<path class="st1" d="M1693,905l-89.7-38.7l16.4-38.1c4.1-9.6,7.9-16.2,11.4-19.8c3.5-3.6,7.8-5.9,13.1-6.7
				c5.2-0.8,10.5-0.1,15.8,2.2c6.7,2.9,11.4,7.3,14.1,13.1c2.7,5.8,2.9,13,0.6,21.3c4-2.9,7.9-5.1,11.7-6.4c3.8-1.4,10.2-2.7,19-4
				l22.2-3.4l-9.3,21.7l-25.2,4.7c-9,1.6-14.7,2.9-17.3,3.9c-2.6,0.9-4.6,2.2-6.1,3.8c-1.5,1.6-3.1,4.5-4.9,8.7l-1.6,3.7l37.4,16.2
				L1693,905z M1649.1,864.5l5.8-13.4c3.7-8.7,5.7-14.3,5.9-16.7c0.2-2.5-0.3-4.7-1.6-6.7c-1.3-2-3.2-3.6-5.9-4.7
				c-3-1.3-5.8-1.5-8.4-0.7c-2.5,0.8-4.7,2.6-6.5,5.3c-0.8,1.4-2.8,5.7-6,13.1l-6.1,14.1L1649.1,864.5z"/>
			<path class="st1" d="M1686.8,799.4c-8.4-5.4-14.6-11.1-18.7-17.3c-3-4.6-5.1-9.5-6.4-14.9c-1.3-5.4-1.4-10.5-0.6-15.4
				c1.1-6.5,3.8-13.1,8.1-19.8c7.8-12.1,17.8-19.4,29.9-21.8c12.2-2.4,25,0.6,38.3,9.2c13.3,8.5,21.3,18.8,24.2,30.8
				c2.9,12,0.4,24.1-7.3,36.1c-7.8,12.2-17.8,19.5-29.9,22C1712.5,810.7,1699.9,807.8,1686.8,799.4z M1697.2,781.9
				c9.3,6,17.7,8.4,25.3,7.1c7.6-1.2,13.5-5.1,17.7-11.7c4.2-6.6,5.4-13.6,3.3-20.9s-7.8-14-17.4-20.1c-9.4-6-17.8-8.5-25.1-7.3
				c-7.3,1.2-13.1,5.2-17.5,12c-4.4,6.8-5.6,13.9-3.6,21.1C1682,769.2,1687.8,775.8,1697.2,781.9z"/>
			<path class="st1" d="M1798.9,669.6l17.3-10.1c6,9.3,8.6,18.2,7.9,26.8c-0.7,8.5-4.6,16.7-11.6,24.5c-8.7,9.6-19.1,14.6-31.3,14.9
				c-12.2,0.3-24-4.7-35.4-15c-12.1-10.9-18.6-22.5-19.7-34.7c-1.1-12.3,3-23.5,12.1-33.6c8-8.9,17.1-13.7,27.4-14.5
				c6.1-0.5,12.8,1,20.1,4.6l-9.6,17.6c-4.5-2.5-9.1-3.4-13.7-2.7c-4.6,0.8-8.7,3.1-12.2,7c-4.8,5.4-6.8,11.5-6,18.3
				c0.8,6.8,5.6,14.1,14.2,21.9c9.2,8.3,17.2,12.5,24.1,12.7c6.9,0.2,12.7-2.3,17.4-7.6c3.5-3.9,5.3-8.4,5.3-13.4
				C1805.2,681.1,1803.1,675.6,1798.9,669.6z"/>
			<path class="st1" d="M1846.5,672.7l-61.9-74.5l15.2-12.6l51.4,61.9l37.7-31.3l10.5,12.7L1846.5,672.7z"/>
			<path class="st1" d="M1854.1,541.2l16.8-10.3l27.6,45.1c4.4,7.2,7.4,11.7,9.1,13.5c2.8,3,6.2,4.7,10.2,5.1c4,0.4,8.3-0.8,13-3.7
				c4.8-2.9,7.8-6.1,9-9.5c1.2-3.4,1.2-6.7,0-9.9c-1.2-3.1-3.9-8-7.9-14.6l-28.2-46.1l16.8-10.3l26.8,43.8c6.1,10,10,17.4,11.6,22
				c1.6,4.7,2.1,9.2,1.4,13.5c-0.7,4.3-2.6,8.6-5.7,12.8c-3.1,4.2-7.9,8.3-14.5,12.3c-8,4.9-14.6,7.6-19.8,8.3
				c-5.2,0.7-9.9,0.3-14.1-1.2c-4.2-1.5-7.6-3.6-10.4-6.4c-4-4.1-8.9-10.8-14.6-20.1L1854.1,541.2z"/>
			<path class="st1" d="M1946.1,487.6l36.1-14.9c7.1-2.9,12.6-4.8,16.4-5.7c3.8-0.9,7.4-0.9,11-0.2c3.6,0.7,6.9,2.3,10,4.7
				c3.1,2.4,5.5,5.5,7.1,9.4c1.7,4.2,2.2,8.6,1.4,13.1s-2.8,8.4-6,11.8c6.2-0.7,11.5,0.3,16.1,3c4.5,2.6,7.9,6.6,10,11.8
				c1.7,4.1,2.4,8.5,2.1,13.2c-0.3,4.7-1.6,8.8-4,12.5c-2.3,3.7-5.8,6.8-10.5,9.3c-2.9,1.6-10.1,4.8-21.7,9.7l-30.7,12.7
				L1946.1,487.6z M1970.5,495.1l8.6,20.9l11.9-4.9c7.1-2.9,11.5-4.8,13.1-5.8c3-1.7,5-3.7,6-6.3c1-2.5,1-5.2-0.2-8.2
				c-1.2-2.8-2.9-4.7-5.1-5.9c-2.3-1.1-5-1.2-8.2-0.3c-1.9,0.5-7.1,2.6-15.7,6.1L1970.5,495.1z M1985.3,531l10,24.1l16.9-7
				c6.6-2.7,10.7-4.6,12.3-5.7c2.5-1.6,4.2-3.7,5.1-6.3c0.9-2.6,0.7-5.5-0.6-8.7c-1.1-2.7-2.7-4.7-4.8-6.1c-2.1-1.3-4.6-1.9-7.4-1.8
				c-2.8,0.2-8.4,2-16.7,5.4L1985.3,531z"/>
			<path class="st1" d="M2084.6,438.5l35.5-6.2c8-1.4,14.2-1.8,18.6-1.3c5.9,0.7,11.3,2.8,16,6.3c4.8,3.5,8.7,8.2,11.9,14
				c3.2,5.8,5.5,13.2,7.1,22.2c1.4,7.9,1.6,14.9,0.6,21c-1.2,7.4-3.6,13.7-7.4,18.8c-2.8,3.9-6.9,7.2-12.3,10.1
				c-4.1,2.1-9.7,3.8-16.8,5l-36.6,6.3L2084.6,438.5z M2106.9,451.4l11.1,63.7l14.5-2.5c5.4-0.9,9.3-1.9,11.6-3
				c3-1.3,5.4-3.1,7.1-5.4c1.8-2.2,2.9-5.6,3.5-10.2c0.6-4.5,0.2-10.5-1.1-18c-1.3-7.4-2.9-13-4.9-16.8c-2-3.8-4.4-6.5-7.1-8.4
				c-2.8-1.8-6-2.8-9.8-3c-2.8-0.1-8.2,0.5-16.1,1.9L2106.9,451.4z"/>
			<path class="st1" d="M2189.6,422.5l19.7-0.3l0.9,52.9c0.1,8.4,0.5,13.8,1,16.3c0.9,4,3,7.2,6.2,9.5c3.2,2.4,7.6,3.5,13.1,3.4
				c5.6-0.1,9.8-1.3,12.6-3.6c2.8-2.3,4.5-5.2,5-8.5c0.5-3.3,0.7-8.9,0.6-16.6l-0.9-54l19.7-0.3l0.8,51.3c0.2,11.7-0.2,20-1.2,24.9
				c-1,4.9-2.9,9-5.7,12.4c-2.8,3.4-6.6,6.1-11.4,8.1c-4.8,2.1-11,3.1-18.7,3.3c-9.3,0.2-16.4-0.8-21.3-2.9
				c-4.9-2.1-8.7-4.8-11.6-8.2c-2.9-3.4-4.8-7-5.7-10.7c-1.4-5.6-2.2-13.8-2.3-24.7L2189.6,422.5z"/>
			<path class="st1" d="M2368.7,497.1l3.4-16.1l41.6,8.7l-8,38.1c-4.9,3.1-11.4,5.3-19.7,6.7c-8.3,1.4-16.4,1.2-24.2-0.4
				c-10-2.1-18.3-6-24.8-11.8c-6.6-5.8-10.9-12.9-13-21.5c-2.1-8.6-2.2-17.5-0.3-26.6c2.1-10,6-18.4,11.8-25.2
				c5.8-6.9,13.1-11.5,22.1-14c6.8-1.9,14.8-1.9,23.9,0c11.9,2.5,20.6,6.9,26.2,13.3c5.6,6.4,8.5,14.2,8.6,23.3l-19.9-0.4
				c-0.4-5-2.1-9.2-5.3-12.7c-3.1-3.5-7.5-5.8-13.1-7c-8.4-1.8-15.7-0.5-21.8,3.8c-6.1,4.3-10.2,11.7-12.5,22.2
				c-2.4,11.3-1.6,20.4,2.2,27.1c3.9,6.7,9.9,10.9,18,12.7c4,0.8,8.3,0.9,12.7,0.2c4.4-0.7,8.3-1.9,11.7-3.6l2.5-12.1L2368.7,497.1z
				"/>
			<path class="st1" d="M2412.8,544.3l35.4-91l38.7,15c9.7,3.8,16.5,7.3,20.3,10.7c3.8,3.3,6.2,7.6,7.2,12.8
				c1,5.2,0.5,10.5-1.6,15.9c-2.7,6.8-6.9,11.7-12.6,14.6c-5.7,2.9-12.8,3.4-21.3,1.4c3.1,3.9,5.4,7.7,6.9,11.5
				c1.5,3.8,3.1,10.1,4.7,18.8l4.2,22.1l-22-8.5l-5.6-25c-2-8.9-3.5-14.6-4.5-17.1c-1-2.5-2.4-4.5-4.1-5.9s-4.6-3-8.9-4.6l-3.7-1.4
				l-14.8,38L2412.8,544.3z M2451.6,499l13.6,5.3c8.8,3.4,14.5,5.2,17,5.3c2.5,0.1,4.7-0.5,6.7-1.8c1.9-1.3,3.5-3.4,4.5-6.1
				c1.2-3.1,1.3-5.9,0.4-8.4c-0.9-2.5-2.7-4.6-5.5-6.3c-1.4-0.8-5.8-2.6-13.3-5.5l-14.3-5.6L2451.6,499z"/>
			<path class="st1" d="M2573.2,622.6l-18.5-10.8l3.8-23.5l-33.7-19.7l-18.1,15.1l-18.1-10.5l82.1-65.2l18,10.5L2573.2,622.6z
				 M2561.3,570.9l6.7-38.1l-29.7,24.6L2561.3,570.9z"/>
			<path class="st1" d="M2575.4,625l61.8-75.6l14.9,12.1l-10.3,75.8l41.3-50.5l14.2,11.6l-61.8,75.6l-15.3-12.5l9.8-74.2l-40.3,49.3
				L2575.4,625z"/>
			<path class="st1" d="M2717.9,618.1l24,26.9c5.4,6.1,9.1,11.1,11,15.1c2.6,5.4,3.6,11.1,3.1,17c-0.5,5.9-2.4,11.8-5.6,17.5
				c-3.2,5.7-8.3,11.7-15.1,17.8c-6,5.4-11.8,9.2-17.5,11.6c-6.9,2.9-13.5,4.1-19.8,3.7c-4.8-0.3-9.8-2-15-5.1
				c-3.9-2.3-8.3-6.2-13.2-11.6l-24.7-27.7L2717.9,618.1z M2718.7,643.8l-48.2,43.1l9.8,11c3.7,4.1,6.6,6.9,8.6,8.3
				c2.7,1.9,5.5,2.9,8.3,3.2c2.8,0.3,6.3-0.5,10.5-2.4c4.1-1.9,9-5.4,14.7-10.4c5.6-5,9.5-9.4,11.6-13.1c2.1-3.7,3.2-7.2,3.3-10.5
				c0.1-3.3-0.8-6.6-2.7-9.9c-1.4-2.5-4.7-6.7-10.1-12.7L2718.7,643.8z"/>
			<path class="st1" d="M2725.3,781.6l83.9-48.5l9.9,17.1l-69.6,40.3l24.6,42.4l-14.2,8.2L2725.3,781.6z"/>
			<path class="st1" d="M2767.8,861l37.8-16.2l37.9-55.2l9.1,21.2l-26.5,36.4l44.4,5.5l9,20.9l-66.3-10.7l-37.7,16.1L2767.8,861z"/>
			<path class="st1" d="M2836.1,898.6c9.6-2.4,18.1-3,25.4-1.8c5.4,0.9,10.4,2.8,15.2,5.6c4.8,2.8,8.6,6.1,11.6,10.1
				c4,5.3,6.9,11.8,8.9,19.5c3.5,14,2,26.2-4.6,36.8c-6.5,10.6-17.5,17.8-33,21.7c-15.3,3.8-28.3,2.7-39-3.4
				c-10.7-6.1-17.8-16.2-21.3-30.1c-3.5-14.1-2.1-26.4,4.4-36.8C2810.2,909.6,2821,902.4,2836.1,898.6z M2841.7,918.2
				c-10.7,2.7-18.2,7.2-22.5,13.6s-5.5,13.3-3.6,21c1.9,7.6,6.2,13.2,13,16.7c6.7,3.5,15.6,3.9,26.6,1.1
				c10.9-2.7,18.4-7.2,22.5-13.3c4.1-6.1,5.2-13.1,3.2-21c-2-7.9-6.3-13.6-12.9-17C2861.3,915.8,2852.6,915.4,2841.7,918.2z"/>
			<path class="st1" d="M2813,1010.1l97.3-8.1l1.6,19.1l-61.7,45.3l65-5.4l1.5,18.3l-97.3,8.1l-1.6-19.7l60.2-44.5l-63.5,5.3
				L2813,1010.1z"/>
		</g>
	</g>
</g>
</svg>
